<?xml version="1.0" encoding="UTF-8" standalone="no"?>
<!-- Created with Inkscape (http://www.inkscape.org/) -->

<svg
   xmlns:dc="http://purl.org/dc/elements/1.1/"
   xmlns:cc="http://creativecommons.org/ns#"
   xmlns:rdf="http://www.w3.org/1999/02/22-rdf-syntax-ns#"
   xmlns:svg="http://www.w3.org/2000/svg"
   xmlns="http://www.w3.org/2000/svg"
   xmlns:sodipodi="http://sodipodi.sourceforge.net/DTD/sodipodi-0.dtd"
   xmlns:inkscape="http://www.inkscape.org/namespaces/inkscape"
   id="svg2"
   version="1.1"
   inkscape:version="0.48.5 r10040"
   width="340"
   height="307"
   sodipodi:docname="perfil.png"
   inkscape:export-filename="/home/canaima/Descargas/icono.svg.png"
   inkscape:export-xdpi="14.657981"
   inkscape:export-ydpi="14.657981">
  <metadata
     id="metadata8">
    <rdf:RDF>
      <cc:Work
         rdf:about="">
        <dc:format>image/svg+xml</dc:format>
        <dc:type
           rdf:resource="http://purl.org/dc/dcmitype/StillImage" />
        <dc:title></dc:title>
      </cc:Work>
    </rdf:RDF>
  </metadata>
  <defs
     id="defs6" />
  <sodipodi:namedview
     pagecolor="#ffffff"
     bordercolor="#666666"
     borderopacity="1"
     objecttolerance="10"
     gridtolerance="10"
     guidetolerance="10"
     inkscape:pageopacity="0"
     inkscape:pageshadow="2"
     inkscape:window-width="1366"
     inkscape:window-height="702"
     id="namedview4"
     showgrid="false"
     inkscape:zoom="1.3368738"
     inkscape:cx="135.9962"
     inkscape:cy="183.84636"
     inkscape:window-x="0"
     inkscape:window-y="27"
     inkscape:window-maximized="1"
     inkscape:current-layer="layer2" />
  <g
     inkscape:groupmode="layer"
     id="layer1"
     inkscape:label="Color"
     style="display:inline">
    <path
       style="fill:#6d8d24;fill-opacity:1;stroke:#000000;stroke-width:1.11920655;stroke-miterlimit:4;stroke-opacity:1;stroke-dasharray:none"
       d="M 9.9392942,11.240561 C 9.2283405,47.042889 10.285522,82.99604 11.096319,118.84387 c 4.51708,2.58351 11.457757,0.5794 16.991736,1.09091 9.980939,-0.44805 20.318701,-0.15524 30.049586,-1.81819 0.934213,-20.6897 1.033143,-41.511897 1.818182,-62.24793 74.499867,-0.648639 149.002987,-0.990081 223.504137,-1.520661 0.56915,21.153921 -0.12396,42.430135 1.68595,63.504131 4.27651,3.52263 11.24604,1.19893 16.42942,2.12797 9.77244,-0.255 19.82855,0.63249 29.42182,-0.44202 2.76431,-33.477104 1.1399,-67.261312 1.61983,-100.859503 2.82279,-8.626928 -4.28197,-8.7527671 -10.71074,-7.900826 -103.66943,0 -207.33885,0 -311.008268,0 l -0.9526497,0.459899 -0.00603,0.0029 z"
       id="path3848"
       inkscape:connector-curvature="0" />
    <path
       style="fill:#6d8d24;fill-opacity:1;stroke:#000000;stroke-width:1.11920655;stroke-miterlimit:4;stroke-opacity:1;stroke-dasharray:none"
       d="m 10.997145,149.81907 c -0.539694,49.8786 -0.07685,99.91285 -0.231404,149.85124 4.664125,2.89847 12.327349,0.51044 18.08074,1.44394 100.856809,1.12912 201.726239,0.59414 302.580419,-0.58443 2.86232,-4.68099 0.33611,-12.3485 1.19008,-18.11571 -0.36577,-43.97291 0.87252,-88.0027 -1.38843,-131.93388 -4.77082,-2.72232 -12.2128,-0.30412 -17.95041,-1.12397 -5.73161,0.80431 -13.2969,-1.60333 -17.95042,1.19009 0.15482,39.10108 -0.23683,78.20311 -1.35537,117.28925 -81.55372,0 -163.10744,0 -244.661155,0 -2.224823,-36.47358 -0.828296,-73.08985 -1.256198,-109.61983 2.325273,-7.95152 -2.388048,-10.56156 -9.652893,-8.85951 -9.07795,0.3163 -18.513759,-0.63117 -27.404959,0.46281 z"
       id="path3850"
       inkscape:connector-curvature="0" />
    <path
       style="fill:#6d8d24;fill-opacity:1;stroke:#000000;stroke-width:1.11920655;stroke-miterlimit:4;stroke-opacity:1;stroke-dasharray:none"
       d="m 165.93929,160.49676 c -13.78172,-0.0725 -24.78804,11.02445 -31.96694,21.71901 -10.5597,17.44236 -4.64098,41.48817 11.3719,53.4876 10.68508,8.08074 25.28326,13.14589 38.18182,7.40496 14.20146,-5.01283 26.87545,-17.11262 29.85124,-32.13223 0.89835,-10.74717 0.71234,-22.23234 -6.14876,-31.17356 -7.78981,-11.8595 -21.26126,-21.24317 -36.06612,-19.33884 -1.7411,0.009 -3.48258,-0.0256 -5.22314,0.0331 z"
       id="path3852"
       inkscape:connector-curvature="0" />
  </g>
  <g
     inkscape:groupmode="layer"
     id="layer2"
     inkscape:label="Vector"
     style="display:inline">
    <path
       style="fill:#000000"
       d="m 6.4663717,226.85465 c 0.008,-43.0375 0.39248,-78.84486 0.85346,-79.5719 1.21223,-1.91191 41.4223803,-2.26331 43.3216703,-0.37859 1.04327,1.03526 1.36515,13.18484 1.58297,59.75 l 0.27341,58.45049 118.945758,0 118.94576,0 0.28083,-58.4506 c 0.22237,-46.2823 0.55104,-58.72111 1.57881,-59.75 0.95977,-0.96082 6.74005,-1.38322 22.18321,-1.62107 l 20.88523,-0.32166 1.06121,3.82166 c 0.70501,2.5389 1.06309,29.20865 1.06679,79.45504 l 0.006,75.63337 -2.25,0.60297 c -1.2375,0.33164 -75.7125,0.60913 -165.5,0.61664 l -163.2504183,0.0136 0.0153,-78.25 z M 118.27463,302.35514 c -19.622038,-0.15158 -52.022038,-0.15165 -71.999998,-1.7e-4 -19.97796,0.15148 -3.92357,-0.84653 35.676429,-0.84643 39.599999,9e-5 55.945609,0.99817 36.323569,0.8466 z M 9.1982717,264.35465 c -0.1719,-7.0125 0.9964743,-1.275 0.9964743,12.75 0,14.025 -1.1683743,19.7625 -0.9964743,12.75 0.1719,-7.0125 0.1719,-18.4875 0,-25.5 z m 323.0740383,16.25 c 0.17669,-11 0.0105,-44.8625 -0.3694,-75.25 l -0.69066,-55.25 -17.38059,0 -17.3806,0 -0.1381,14.25 c -0.076,7.8375 -0.41346,34.5 -0.75,59.25 l -0.6119,45 -123.5,0 -123.499998,0 -0.25658,-59.5 -0.25657,-59.5 -17.84292,0.29248 -17.84293,0.29249 -0.54609,74.70751 c -0.30035,41.08914 -0.34067,75.04639 -0.0896,75.46056 0.25107,0.41418 72.541582,0.63918 160.645588,0.5 l 160.1891,-0.25304 z m -39.07287,-70.31582 c -0.16239,-10.2763 0.68062,-1.25897 0.68091,19.64103 3e-4,20.9 -0.84247,28.98267 -0.68037,18.35897 0.1621,-10.6237 0.16186,-27.7237 -5.4e-4,-38 z M 50.199972,188.78579 c -0.15819,-12.74963 1.208578,-0.72212 1.208788,25.12788 2e-4,25.85 -1.366408,34.97249 -1.208418,21.87212 0.15798,-13.10037 0.15782,-34.25037 -3.7e-4,-47 z M 293.53482,153.07765 c 0.14654,-5.03677 1.0787,-4.57848 0.66624,-4.32175 -0.4125,0.25673 -0.66889,6.40273 -0.56975,13.65777 0.18321,13.40761 -0.57774,7.20477 -0.0965,-9.33602 z m 40.65348,0.777 c -0.202,-2.8875 1.24244,-0.525 1.24244,5.25 0,5.775 -1.44444,8.1375 -1.24244,5.25 0.202,-2.8875 0.202,-7.6125 0,-10.5 z m -170.88299,95.27176 c -12.07552,-1.57353 -24.48978,-9.84073 -31.89893,-21.2429 -5.34825,-8.2306 -7.28611,-16.33458 -6.80001,-28.43718 0.35654,-8.87671 0.76778,-10.64731 4.10526,-17.67508 7.91418,-16.66503 23.94403,-26.6666 42.73943,-26.6666 18.60951,0 34.38022,9.87357 42.7184,26.74473 3.36298,6.80453 3.75942,8.46311 4.11017,17.19573 0.66724,16.61226 -3.7916,28.1911 -14.71807,38.22031 -10.80554,9.9182 -24.40832,13.92609 -40.25625,11.86099 z m 17.61079,-5.55467 c 8.4629,-2.2043 14.74582,-5.95894 21.07468,-12.59409 12.6843,-13.29816 15.35287,-29.82062 7.51987,-46.55935 -4.14953,-8.86734 -10.81377,-15.58868 -19.91719,-20.08784 -7.26265,-3.58939 -7.92503,-3.72581 -18.09054,-3.72581 -9.73231,0 -11.0567,0.24057 -17.05186,3.09738 -22.09113,10.52687 -31.38249,34.59739 -21.60156,55.96176 5.06919,11.07257 13.97329,18.87027 26.37326,23.09621 7.92108,2.69952 13.62608,2.91299 21.69334,0.81174 z M 140.77597,233.678 c 0,-0.20765 3.88759,4.05394 2.92509,3.29909 -1.58606,-1.24387 -1.62143,-1.2085 -0.37756,0.37756 1.30637,1.66575 -2.54753,-2.85361 -2.54753,-3.67665 z m 59.80265,2.67665 c 1.24387,-1.58606 2.89153,-0.31241 1.30547,0.93146 -0.9625,0.75485 -1.937,0.23333 -1.937,0.44098 0,0.82304 -0.67484,0.29331 0.63153,-1.37244 z m 6,-6 c 1.24387,-1.58606 2.33052,-1.06042 0.74446,0.18345 -0.9625,0.75485 -0.81498,0.98134 -0.81498,1.18899 0,0.82304 -1.23585,0.29331 0.0705,-1.37244 z m 9.55555,-25.4375 c -0.0753,-1.44815 0.54141,0.74007 0.49343,1.90502 -0.0434,1.05416 -0.90467,0.34394 -0.57237,0.0117 0.33229,-0.3323 0.2052,-0.99154 -0.0837,-1.71341 z m -0.24391,-6.59349 c -0.31922,-0.79773 0.33815,0.53681 0.29017,1.70176 -0.0434,1.05416 -0.4575,0.14069 -0.1252,-0.1916 0.33229,-0.3323 -0.78198,-0.50492 -1.07089,-1.22679 z m -75.4392,-27.71901 c 1.29175,-1.375 7.4127,-5.25952 7.1377,-5.25952 -0.275,0 -5.23627,5.49424 -6.52798,6.86924 -1.29175,1.375 -3.73335,0.89028 -3.45835,0.89028 0.275,0 1.55688,-1.125 2.84863,-2.5 z m 65,2.17431 c 0,-0.17912 -1.2375,-1.41662 -2.75,-2.75 l -2.75,-2.42431 4.49395,1.37024 c 3.27749,0.99934 1.00605,4.58835 1.00605,3.80407 z m -38.95891,-15.56655 c -0.6875,-0.27741 3.70653,-0.96724 3.01903,-0.68988 -0.6875,0.27741 3.09443,0.0445 4.46943,0.0445 1.375,0 -6.80096,0.92282 -7.48846,0.64541 z M 9.3036817,123.4948 c -0.90605,-0.2735 -1.91241,-1.48567 -2.23634,-2.69371 -0.32393,-1.20804 -0.59512,-27.285269 -0.60263,-57.949396 L 6.4510617,7.0987349 171.70106,7.3516931 l 165.25,0.2529583 0.25867,54.3609586 c 0.16915,35.549251 -0.10373,55.70677 -0.78855,58.25 l -1.04721,3.88904 -22.32188,0 c -25.10201,0 -31.20772,-0.53268 -32.07719,-2.79848 -0.32556,-0.84838 -0.87393,-15.41578 -1.21862,-32.372008 l -0.6267,-30.82951 -107.72615,0 -107.726138,0 -0.3755,31.462379 c -0.27923,23.396659 -0.6956,31.782489 -1.62415,32.711039 -0.91762,0.91762 -7.80741,1.31034 -25.98762,1.48133 -13.60643,0.12796 -25.48028,0.009 -26.3863403,-0.2646 z M 334.18456,108.88108 c -0.21125,-2.35204 0.92196,-0.67643 0.91833,3.72357 -0.004,4.4 -1.13981,6.32439 -0.92494,4.27643 0.21488,-2.04796 0.21785,-5.64796 0.007,-8 z M 58.451062,86.604652 l 0.5,-32 112.749998,-0.254291 112.75,-0.254291 0,29.939191 c 0,17.032779 0.42042,31.044969 0.97525,32.504289 l 0.97525,2.5651 22.36364,0 22.36365,0 0.65926,-29.249998 c 0.36259,-16.0875 0.66009,-40.3875 0.66111,-54 l 0.002,-24.750001 -161,0 -160.999998,0 0,29.838071 c 0,16.410938 0.2972,40.719055 0.66044,54.018036 l 0.66044,24.179962 23.08956,-0.26803 23.08956,-0.26804 0.5,-31.999998 z M 283.13417,115.91715 c -0.31922,-0.79773 2.43588,1.87026 2.3879,3.03521 -0.0434,1.05416 -2.79913,-0.78625 -2.46684,-1.11854 0.33229,-0.3323 0.36781,-1.1948 0.0789,-1.91667 z M 9.2000217,31.354652 c -0.15953,-11.9625 0.6449672,-2.175 0.6449672,21.75 0,23.925 -0.8044972,33.7125 -0.6449672,21.75 0.15952,-11.9625 0.15952,-31.5375 0,-43.5 z M 286.2768,9.354942 c -25.67084,-0.1484834 -67.97084,-0.1485291 -94,-1.016e-4 -26.02916,0.1484275 -5.02574,-1.787124 46.67426,-1.7870681 51.7,5.59e-5 72.99658,1.9356531 47.32574,1.7871697 z"
       id="path2988"
       inkscape:connector-curvature="0"
       sodipodi:nodetypes="cssscccssscsscsscccsssssssssscccsscccccccssscsssssssssscssssssssssssssssssssssssssssssssssssccccccccccssssssscsscsssccscccsscssscccssscccsccccccsscccsscccssccccccscccsssssssss" />
  </g>
</svg>
