<?xml version="1.0" encoding="UTF-8" standalone="no"?>
<!-- Created with Inkscape (http://www.inkscape.org/) -->

<svg
   xmlns:dc="http://purl.org/dc/elements/1.1/"
   xmlns:cc="http://creativecommons.org/ns#"
   xmlns:rdf="http://www.w3.org/1999/02/22-rdf-syntax-ns#"
   xmlns:svg="http://www.w3.org/2000/svg"
   xmlns="http://www.w3.org/2000/svg"
   xmlns:sodipodi="http://sodipodi.sourceforge.net/DTD/sodipodi-0.dtd"
   xmlns:inkscape="http://www.inkscape.org/namespaces/inkscape"
   id="svg2"
   version="1.1"
   inkscape:version="0.48.3.1 r9886"
   width="800"
   height="211"
   sodipodi:docname="logo.svg">
  <metadata
     id="metadata8">
    <rdf:RDF>
      <cc:Work
         rdf:about="">
        <dc:format>image/svg+xml</dc:format>
        <dc:type
           rdf:resource="http://purl.org/dc/dcmitype/StillImage" />
        <dc:title />
      </cc:Work>
    </rdf:RDF>
  </metadata>
  <defs
     id="defs6" />
  <sodipodi:namedview
     pagecolor="#ffffff"
     bordercolor="#666666"
     borderopacity="1"
     objecttolerance="10"
     gridtolerance="10"
     guidetolerance="10"
     inkscape:pageopacity="0"
     inkscape:pageshadow="2"
     inkscape:window-width="1280"
     inkscape:window-height="965"
     id="namedview4"
     showgrid="false"
     inkscape:zoom="0.80433396"
     inkscape:cx="444.87576"
     inkscape:cy="52.315474"
     inkscape:window-x="0"
     inkscape:window-y="27"
     inkscape:window-maximized="1"
     inkscape:current-layer="layer2" />
  <g
     inkscape:groupmode="layer"
     id="layer2"
     inkscape:label="Color"
     style="display:inline">
    <path
       style="fill:#6d8d24;fill-opacity:1;stroke:none"
       d="m 13.16746,18.004288 c -1.216615,14.905667 -0.175008,30.233828 -0.521978,45.302198 0.409658,6.901097 -0.838423,14.153991 0.65934,20.824176 8.95419,1.211786 18.328631,0.177335 27.445055,0.521978 4.251869,-3.019099 1.350703,-10.333838 2.575936,-15.097546 0.3133,-8.150632 0.654457,-16.304531 0.583405,-24.462894 43.205128,0 86.410262,0 129.615382,0 0.2445,12.759469 -0.48125,25.724839 0.35705,38.358297 4.16687,2.69861 10.64947,0.478832 15.71438,1.202143 4.41497,-1.161822 13.01314,2.750042 14.31319,-2.884615 -0.23769,-21.048461 0.4756,-42.298732 -0.35705,-63.220934 -4.16687,-2.69861 -10.64947,-0.478833 -15.71438,-1.202144 -57.72894,0 -115.457876,0 -173.186814,0 l -0.803351,0.357045 -0.680165,0.302296 z"
       id="path3834"
       inkscape:connector-curvature="0" />
    <path
       style="fill:#6d8d24;fill-opacity:1;stroke:none"
       d="m 13.16746,102.39989 c -1.216615,14.90567 -0.175008,30.23383 -0.521978,45.3022 0.237395,15.48076 -0.475214,31.16312 0.357044,46.51764 4.166881,2.69861 10.649473,0.47883 15.714384,1.20214 57.728939,0 115.45787,0 173.18681,0 4.26118,-3.06195 0.96814,-10.39289 2.0055,-15.19231 -0.2378,-25.73708 0.47575,-51.67605 -0.35705,-77.28686 -4.02944,-2.67604 -10.34187,-0.51084 -15.27482,-1.20215 -6.23685,-1.6356 -10.47588,1.61352 -8.5989,8.15934 0,21.60257 0,43.20513 0,64.8077 -47.31028,0.11976 -94.621417,-0.18572 -141.923078,-1.12638 -0.107937,-23.53796 -0.05885,-47.30074 -1.541033,-70.67937 -4.035088,-2.59583 -10.220018,-0.49121 -15.107319,-1.16129 -2.610694,0.29623 -5.566353,-0.68342 -7.93956,0.65934 z"
       id="path3836"
       inkscape:connector-curvature="0" />
    <path
       style="fill:#6d8d24;fill-opacity:1;stroke:none"
       d="m 107.81032,108.08671 c -13.082203,1.6178 -25.559275,13.02824 -24.505497,26.95055 -0.166899,10.98271 7.159792,21.77132 17.142857,26.04395 13.94344,3.92332 30.31357,-4.69084 33.40659,-19.23077 3.49331,-12.62349 -3.56822,-26.85792 -15.90659,-31.37362 -3.15596,-1.45136 -6.59602,-2.77092 -10.13736,-2.39011 z"
       id="path3838"
       inkscape:connector-curvature="0" />
    <path
       style="fill:#6d8d24;fill-opacity:1;stroke:none"
       d="m 232.78285,42.37242 c -5.60324,4.00719 -12.40541,8.517237 -12.41759,16.263736 -1.4114,19.617343 -0.35138,39.350077 -0.68681,59.010994 3.47032,7.62994 10.64455,14.48623 19.61422,13.86393 14.46447,0.50416 29.14829,0.92741 43.49682,0.25704 2.65171,-4.06866 0.10425,-10.40593 0.68017,-15.35724 -3.17242,-4.12175 -10.36543,-1.00133 -15.16402,-2.06959 -9.75284,-0.11523 -19.50601,-0.19805 -29.25906,-0.29305 0.45158,-17.707932 0.55018,-35.578469 1.34616,-53.186809 14.02072,-0.99703 28.27909,-0.628679 42.1728,-2.014642 2.84818,-3.151995 0.58903,-8.675328 1.34368,-12.68316 0.81079,-6.971495 -8.41249,-3.304585 -12.55495,-4.203297 -12.82681,0.280123 -25.86209,-0.558176 -38.57142,0.412088 z"
       id="path3840"
       inkscape:connector-curvature="0" />
    <path
       style="fill:#6d8d24;fill-opacity:1;stroke:none"
       d="m 329.51362,42.015277 c -5.72224,0.398645 -11.96652,-0.485265 -17.25275,1.895605 -6.96072,28.43172 -13.73177,56.988778 -20.08242,85.576928 1.68289,4.16709 7.70158,1.95108 11.18132,2.63736 5.43872,1.47542 8.98671,-1.52554 8.82773,-7.03707 1.18389,-4.51235 0.7973,-11.09608 7.38106,-8.78711 9.41392,0 18.82784,0 28.24176,0 1.97489,5.2834 1.4459,13.19101 7.06044,16.18132 4.70435,0.61153 10.25205,1.36927 14.58791,-0.82418 1.46166,-5.28932 -1.84463,-10.95462 -2.31556,-16.33265 -5.65153,-24.183612 -10.89589,-48.671971 -17.39484,-72.524601 -5.17246,-1.979443 -11.7882,-0.289856 -17.51487,-0.840547 -0.9066,0.01832 -1.81319,0.03663 -2.71978,0.05494 z m 1.73076,17.142858 c 2.64406,-0.487886 5.07307,0.08872 4.81096,3.322883 2.57857,12.070041 5.96734,24.440501 7.35937,36.649644 -7.7614,1.043228 -16.13745,1.231518 -23.76373,-0.10989 -1.27077,-2.684764 1.10668,-6.563424 1.09224,-9.513141 2.19294,-10.137772 4.5113,-20.250165 6.87479,-30.349496 1.20879,0 2.41758,0 3.62637,0 z"
       id="path3842"
       inkscape:connector-curvature="0" />
    <path
       style="fill:#6d8d24;fill-opacity:1;stroke:none"
       d="m 382.39823,42.619673 c -1.21661,14.905667 -0.17501,30.233828 -0.52198,45.302198 0.23729,14.308619 -0.47507,28.818769 0.35705,43.001149 4.02134,2.6922 10.3583,0.47739 15.27482,1.20215 6.17447,-0.42406 2.19772,-9.25374 3.32418,-13.43407 -0.0814,-19.556503 0.27465,-39.113324 1.07143,-58.653845 6.79425,-1.26735 10.63317,0.49646 8.96411,7.90955 0.79251,20.963109 0.55812,42.129775 1.25557,62.976215 4.16688,2.69861 10.64947,0.47883 15.71438,1.20215 10.11953,-0.43328 20.60936,0.87838 30.49451,-0.65934 1.21661,-14.90567 0.175,-30.23383 0.52197,-45.302201 -0.23728,-14.308618 0.47507,-28.818766 -0.35704,-43.001153 -4.16688,-2.69861 -10.64947,-0.478833 -15.71438,-1.202144 -6.73458,-0.122134 -2.6518,9.172262 -3.76374,13.434066 0,20.137363 0,40.274726 0,60.412092 -5.31709,0.2072 -11.5942,1.37441 -9.17582,-6.15385 -0.23811,-22.138114 0.47565,-44.478229 -0.35705,-66.490164 -4.16688,-2.69861 -10.64947,-0.478833 -15.71438,-1.202144 -10.39848,0.42632 -21.21471,-0.861124 -31.37363,0.659341 z"
       id="path3844"
       inkscape:connector-curvature="0" />
    <path
       style="fill:#6d8d24;fill-opacity:1;stroke:none"
       d="m 494.95318,42.097695 c -4.92119,-1.323145 -5.75931,4.040225 -6.24553,7.681285 -5.87555,26.597435 -12.75521,53.08064 -17.95777,79.76377 2.69825,4.42935 9.36862,1.80051 13.65385,2.58242 6.53775,1.55922 5.36815,-6.47239 6.95055,-10.49451 -0.40368,-6.63046 5.24543,-5.5243 10.16425,-5.22829 8.18719,0.0885 16.37405,0.2043 24.56102,0.31071 2.11683,5.05915 1.51897,12.94241 7.08791,15.71429 4.70431,0.73252 9.96069,0.787 14.45055,-0.57693 0.70897,-8.76369 -3.31072,-17.44626 -4.62129,-26.1374 -4.94824,-20.798467 -9.21386,-41.966321 -14.84185,-62.472601 -5.57292,-2.042292 -12.62833,-0.420862 -18.75114,-1.087799 -4.81676,-0.01711 -9.63391,-0.134903 -14.45055,-0.05494 z m 13.40659,17.087912 c 2.81174,-0.310211 5.94933,0.01905 5.76923,3.626374 2.72512,12.156317 5.55127,24.899541 7.28022,36.950549 -7.78076,0.19088 -16.34792,0.67416 -23.81868,-0.576923 1.83219,-13.330625 4.76186,-26.830403 8.46154,-39.752747 0.73065,-0.195937 1.52577,-0.221213 2.30769,-0.247253 z"
       id="path3846"
       inkscape:connector-curvature="0" />
    <path
       style="fill:#6d8d24;fill-opacity:1;stroke:none"
       d="m 319.98065,150.75154 c -1.67333,8.97389 0.74591,18.70839 -1.29121,27.66484 -3.03039,4.42766 -12.00144,3.03994 -11.84066,-3.1044 -1.77107,-7.94787 0.30891,-16.8155 -2.91209,-24.31319 -4.5391,-2.52248 -4.83319,4.89609 -5.05494,7.71978 0.11695,8.37545 -1.81241,18.41796 3.81868,25.43957 7.21352,5.90936 20.90009,4.50979 24.91758,-4.5055 1.40296,-9.30112 1.21232,-19.025 0.97951,-28.31106 -1.56733,-2.095 -6.31199,-1.47067 -8.61687,-0.59004 z"
       id="path3848"
       inkscape:connector-curvature="0" />
    <path
       style="fill:#6d8d24;fill-opacity:1;stroke:none"
       d="m 337.56307,150.75154 c -1.02663,10.69084 -0.55092,21.83919 -0.24726,32.66484 -0.75265,4.57117 6.55434,5.68179 6.89561,1.01648 0.87458,-8.42254 -0.15689,-17.20727 0.85165,-25.46703 4.2593,8.41288 5.67587,17.99977 9.83516,26.34615 3.33647,2.57528 8.13141,0.89384 11.97802,2.39011 4.81878,-2.17983 1.17837,-9.84572 2.30769,-14.28571 -0.43149,-7.55581 0.88778,-15.48315 -0.65934,-22.8022 -5.92525,-2.73558 -10.35474,1.38502 -8.58054,7.58067 -0.19658,6.42632 -0.17306,12.95882 -0.76012,19.31493 -3.9457,-8.76238 -5.50121,-18.79475 -9.94505,-27.22527 -3.7648,-0.0257 -8.11423,-0.89659 -11.67582,0.46703 z"
       id="path3850"
       inkscape:connector-curvature="0" />
    <path
       style="fill:#6d8d24;fill-opacity:1;stroke:none"
       d="m 377.12351,150.75154 c -1.21511,11.38947 -0.17615,23.20065 -0.52198,34.75275 2.57218,4.69893 11.14802,1.54975 8.40659,-4.39561 -0.42508,-10.12126 0.85954,-20.60535 -0.65934,-30.4945 -2.14574,-0.78352 -5.14733,-0.91135 -7.22527,0.13736 z"
       id="path3854"
       inkscape:connector-curvature="0" />
    <path
       style="fill:#6d8d24;fill-opacity:1;stroke:none"
       d="m 390.44768,150.75154 c -0.39603,6.74096 3.22225,13.57702 4.38398,20.35037 2.24042,5.03349 1.30441,11.98987 5.50613,15.83095 3.99602,0.74942 9.7003,1.54808 12.74725,-1.67582 3.77347,-10.57272 6.48764,-21.71455 8.48902,-32.71978 -1.28662,-4.66117 -8.00963,-1.96206 -7.88462,2.22527 -2.66991,8.28092 -3.28514,17.36654 -6.81319,25.21978 -2.55231,-0.96303 -2.17799,-5.58973 -3.32417,-7.74725 -2.46068,-6.93067 -2.41843,-15.15006 -6.7033,-21.26374 -1.7492,-1.32187 -4.55816,-1.18911 -6.4011,-0.21978 z"
       id="path3856"
       inkscape:connector-curvature="0" />
    <path
       style="fill:#6d8d24;fill-opacity:1;stroke:none"
       d="m 428.11252,150.75154 c -1.21304,11.48143 -0.17241,23.3845 -0.52198,35.02747 2.84424,4.20973 9.80545,0.63209 14.36813,1.37363 3.4287,-0.84803 9.90811,1.11883 10.82418,-3.57143 -1.52241,-4.99532 -8.56836,-3.09288 -12.52748,-3.62637 -2.25513,0.25436 -5.24307,0.0421 -4.25824,-3.1044 -1.79068,-5.5689 3.7369,-4.19454 7.41758,-4.6978 2.98598,0.41732 8.71132,-1.57456 5.9066,-5.24725 -3.49609,-3.39562 -9.38251,-0.63036 -13.07693,-2.63736 -0.31102,-3.05926 -1.5426,-8.06307 3.26226,-6.73231 4.09611,-0.91791 9.70125,0.72931 12.7817,-2.58088 1.56445,-4.84872 -5.3552,-4.80826 -8.37912,-4.80769 -5.20794,0.27777 -10.8388,-0.87256 -15.7967,0.60439 z"
       id="path3858"
       inkscape:connector-curvature="0" />
    <path
       style="fill:#6d8d24;fill-opacity:1;stroke:none"
       d="m 559.98065,42.619673 c -1.21662,14.905667 -0.17501,30.233828 -0.52198,45.302198 0.23729,14.308619 -0.47507,28.818769 0.35705,43.001149 4.02134,2.6922 10.3583,0.47739 15.27482,1.20215 6.17447,-0.42406 2.19772,-9.25374 3.32418,-13.43407 -0.23779,-25.151001 0.47573,-50.503888 -0.35705,-75.528624 -4.02134,-2.692201 -10.3583,-0.477385 -15.27482,-1.202144 -1.03989,-0.210514 -1.90167,0.21564 -2.8022,0.659341 z"
       id="path3860"
       inkscape:connector-curvature="0" />
    <path
       style="fill:#6d8d24;fill-opacity:1;stroke:none"
       d="m 568.22241,15.614178 c -6.30968,0.530958 -11.88365,8.719406 -6.51099,13.846154 5.12012,7.08396 17.28369,1.519123 15.93406,-6.923077 -0.55967,-4.487002 -5.08135,-7.400809 -9.42307,-6.923077 z"
       id="path3862"
       inkscape:connector-curvature="0" />
    <path
       style="fill:#6d8d24;fill-opacity:1;stroke:none"
       d="m 683.77186,41.108684 c -11.44358,0.347 -23.10448,0.240958 -34.38817,1.51356 -2.56883,4.232322 -0.43507,10.621642 -1.13381,15.684242 0,19.166667 0,38.333334 0,57.500004 -6.77954,1.3766 -10.00765,-0.79822 -8.2967,-7.91209 -0.23803,-21.552053 0.47565,-43.306071 -0.35705,-64.731924 -4.16688,-2.69861 -10.64947,-0.478833 -15.71438,-1.202144 -10.11953,0.433278 -20.60936,-0.878384 -30.49451,0.659341 -1.21661,14.905667 -0.175,30.233828 -0.52198,45.302198 0.23729,14.308619 -0.47507,28.818769 0.35705,43.001149 4.02134,2.6922 10.3583,0.47739 15.27482,1.20215 6.17447,-0.42406 2.19772,-9.25374 3.32418,-13.43407 0,-19.844321 0,-39.688643 0,-59.532965 2.88324,0.71333 9.56958,-1.83211 8.80637,3.019178 1.37588,22.875972 0.55519,46.007567 1.89264,68.767607 4.18228,2.66035 10.64022,0.46252 15.70209,1.18025 9.44178,-0.43371 19.25494,0.8826 28.46154,-0.65934 1.21309,-15.05285 0.18055,-30.52583 0.52197,-45.741761 0,-8.855312 0,-17.710623 0,-26.565934 5.41707,-0.01414 12.54902,-1.743159 10.05495,6.153846 0.24084,21.844494 -0.47835,43.892719 0.35704,65.611039 4.16688,2.69861 10.64947,0.47883 15.71439,1.20215 4.26118,-3.06195 0.96814,-10.3929 2.00549,-15.19231 -0.23979,-24.857538 0.47795,-49.918275 -0.35704,-74.649505 -2.31316,-2.488229 -7.89549,-0.683432 -11.20889,-1.174671 z"
       id="path3864"
       inkscape:connector-curvature="0" />
    <path
       style="fill:#6d8d24;fill-opacity:1;stroke:none"
       d="m 727.17845,41.987805 c -4.20702,2.852393 -2.91248,9.898569 -4.88348,14.422446 -5.41621,24.287448 -11.34403,48.466529 -16.87476,72.720409 0.88723,4.49292 7.11199,2.33615 10.3022,2.99451 5.17922,1.06941 9.98484,-0.44518 9.80769,-6.45605 1.69063,-3.06473 -0.0961,-10.26481 4.72528,-9.36813 10.31135,0 20.62271,0 30.93406,0 2.06271,5.26521 1.44486,13.49411 7.28022,16.31868 4.57992,0.18801 10.34744,1.70314 14.23077,-1.26373 1.42152,-5.39902 -1.94195,-11.11307 -2.38942,-16.57227 -5.42402,-23.83528 -10.70851,-47.891469 -16.93741,-71.425337 -3.64637,-2.511191 -9.43381,-0.684118 -13.83245,-1.357955 -7.45395,-0.08009 -14.90849,-0.0065 -22.3627,-0.01257 z m 17.74725,17.17033 c 4.00442,-1.167088 4.80856,1.618253 4.90948,5.14532 2.42271,11.636745 5.20035,23.253196 7.26085,34.909625 -7.97463,0.9465 -16.87331,1.16243 -24.50549,0.02747 1.81887,-13.462639 5.57274,-26.745944 8.37912,-40.082417 1.31868,0 2.63736,0 3.95604,0 z"
       id="path3866"
       inkscape:connector-curvature="0" />
    <path
       style="fill:#6d8d24;fill-opacity:1;stroke:none"
       d="m 459.81581,150.47682 c -1.33805,11.48579 -0.19279,23.46285 -0.57692,35.13736 1.84751,4.16144 8.5438,1.09764 8.2967,-3.13187 1.07226,-3.08801 -0.55838,-9.17182 4.28572,-8.02198 7.25918,0.36683 5.50852,12.85769 12.93956,12.82967 4.6631,-1.92231 0.36722,-7.65286 -0.0275,-11.01648 -1.54869,-4.95647 4.38665,-8.2838 3.65384,-13.37912 0.78227,-6.86084 -5.24755,-12.72723 -12.00549,-12.28022 -5.45376,-0.12484 -11.30818,-1.34269 -16.56594,-0.13736 z m 12.39011,7.14285 c 3.73158,-0.69128 8.96001,0.47192 8.15934,5.27473 0.43854,3.87116 -3.52881,5.40951 -6.81306,4.7674 -2.44052,0.0249 -6.77432,0.81418 -5.8243,-3.03663 0.27964,-4.09011 -2.07437,-8.67805 4.47802,-7.0055 z"
       id="path3868"
       inkscape:connector-curvature="0" />
    <path
       style="fill:#6d8d24;fill-opacity:1;stroke:none"
       d="m 506.3268,149.89989 c -6.83022,-0.45959 -14.20974,5.39509 -12.30769,12.69231 2.59583,7.8308 12.34765,7.76609 17.77473,12.33517 2.13292,3.47076 -2.31035,6.41309 -5.57693,5.76923 -3.55622,0.87629 -9.8812,-1.48962 -11.29121,3.04945 2.01541,4.86785 8.98443,3.12583 13.21329,3.41972 8.95698,1.4944 15.91395,-10.73646 9.6988,-17.37577 -4.18856,-4.62388 -11.44707,-4.73708 -15.85165,-8.70879 -1.001,-5.18235 6.39343,-4.23126 9.50049,-4.90135 2.57774,-0.1183 8.48128,-0.70306 6.48852,-4.65909 -3.14817,-2.33154 -7.96729,-1.41141 -11.64835,-1.62088 z"
       id="path3870"
       inkscape:connector-curvature="0" />
    <path
       style="fill:#6d8d24;fill-opacity:1;stroke:none"
       d="m 527.45318,150.75154 c -1.21511,11.38947 -0.17615,23.20065 -0.52198,34.75275 2.62617,4.56986 12.14568,2.01872 9.28571,-4.39561 -0.42507,-10.12126 0.85955,-20.60535 -0.65934,-30.4945 -2.41892,-0.82666 -5.75421,-0.90212 -8.10439,0.13736 z"
       id="path3872"
       inkscape:connector-curvature="0" />
    <path
       style="fill:#6d8d24;fill-opacity:1;stroke:none"
       d="m 548.66197,150.22956 c -3.14451,-0.27686 -10.04161,0.25995 -8.04945,5.05495 2.18501,2.9908 7.27499,0.9544 9.45055,2.9945 1.38553,9.47712 -0.37587,19.41596 1.26373,28.7088 5.86994,2.83698 9.45615,-1.94553 7.74726,-7.63737 0,-7.2619 0,-14.52381 0,-21.78571 3.04981,-0.65637 10.22588,-4.4e-4 9.17582,-4.97253 -4.14775,-3.31435 -10.47083,-1.67408 -15.46703,-2.36264 -1.37381,-0.0306 -2.7471,-0.0337 -4.12088,0 z"
       id="path3874"
       inkscape:connector-curvature="0" />
    <path
       style="fill:#6d8d24;fill-opacity:1;stroke:none"
       d="m 577.70043,150.61418 c -3.53761,11.2732 -5.9282,23.01325 -8.57143,34.56044 1.56791,4.85615 7.4446,0.2475 8.98352,-2.58242 4.36207,-1.66268 9.65405,-1.39332 14.06593,-0.93406 0.32329,3.42836 4.97975,8.2916 7.77473,4.23076 1.0713,-5.82603 -2.35111,-11.75502 -3.05649,-17.5592 -1.84378,-5.76418 -2.14122,-12.30813 -5.04791,-17.55069 -4.56415,-0.30377 -9.73089,-1.29919 -14.14835,-0.16483 z m 7.22527,6.15385 c 3.28855,0.84458 2.4167,6.18661 3.65385,8.81868 0.12867,2.51874 1.89968,7.03756 -0.10989,8.24175 -2.27067,-0.64347 -6.50248,1.09135 -8.02198,-0.82417 0.79273,-5.40401 1.26141,-11.4281 3.79121,-16.23626 0.23008,0.0101 0.45734,-0.0743 0.68681,0 z"
       id="path3876"
       inkscape:connector-curvature="0" />
    <path
       style="fill:#6d8d24;fill-opacity:1;stroke:none"
       d="m 607.45318,150.75154 c -1.0105,10.87437 -0.58971,22.20427 -0.16484,33.21429 -0.15669,4.55832 6.17747,4.06088 6.86813,0.16483 1.13305,-3.12799 1.04453,-6.52475 1.15385,-9.80769 4.52325,-1.11154 8.1006,1.85327 9.31319,6.01648 1.22361,3.75338 5.94549,8.60103 9.60235,5.15074 1.01386,-4.99635 -6.90349,-10.69815 -1.66279,-14.90348 4.80339,-6.17062 3.28311,-18.12799 -5.63187,-19.47803 -6.30785,-1.12731 -13.30567,-1.61033 -19.47802,-0.35714 z m 8.43406,6.86813 c 3.37905,0.87132 9.73312,-2.06657 11.07143,2.66484 1.9385,3.96995 -1.85109,7.7555 -5.85165,7.11538 -6.14509,2.22681 -6.51719,-2.45791 -6.53846,-7.47252 0.004,-1.29501 -0.64885,-2.70359 1.31868,-2.3077 z"
       id="path3878"
       inkscape:connector-curvature="0" />
    <path
       style="fill:#6d8d24;fill-opacity:1;stroke:none"
       d="m 645.47516,150.20209 c -4.1525,3.0132 -1.57008,9.62697 -2.50001,13.95605 0.63812,7.30357 -1.28971,15.23294 1.18132,22.1978 2.59226,3.01548 6.91773,-0.18368 6.18132,-3.70879 -0.11784,-10.11277 1.12364,-20.52965 -0.90659,-30.46704 -0.66393,-1.49484 -2.33295,-2.4445 -3.95604,-1.97802 z"
       id="path3882"
       inkscape:connector-curvature="0" />
    <path
       style="fill:#6d8d24;fill-opacity:1;stroke:none"
       d="m 673.79933,150.20209 c -7.27588,-0.57944 -15.1898,3.95994 -15.38461,11.89561 -0.34981,7.28557 -1.42473,16.17726 3.92857,21.95054 6.11798,4.47911 15.50256,4.41092 21.73077,0.21979 6.26627,-5.1279 4.93591,-14.44784 4.78022,-21.64836 -1.10661,-7.58661 -6.9872,-13.48666 -15.05495,-12.41758 z m -1.56593,6.34615 c 5.43824,-0.92596 9.68949,4.30476 9.28571,9.53297 0.21296,5.04515 -0.0308,12.90408 -5.90659,14.67033 -4.15882,0.88333 -9.83548,-1.01295 -9.03846,-6.18132 0.12015,-5.35428 -1.31943,-11.63239 1.4011,-16.4011 1.15162,-1.01041 2.75224,-1.54923 4.25824,-1.62088 z"
       id="path3884"
       inkscape:connector-curvature="0" />
  </g>
  <g
     inkscape:groupmode="layer"
     id="layer3"
     inkscape:label="Logo"
     style="display:inline">
    <path
       style="fill:#000000;display:inline"
       d="m 12.981992,197.38723 c -0.454345,-0.50772 -0.826095,-22.36647 -0.826095,-48.57497 0,-42.18644 0.222797,-47.74743 1.942428,-48.48482 3.596561,-1.542195 22.061262,-0.905528 23.59984,0.81376 1.069976,1.19562 1.473592,11.3436 1.473592,37.04969 l 0,35.40303 69.995633,0 69.99565,0 0,-36.21678 c 0,-31.75911 0.23907,-36.31929 1.94242,-37.0497 3.98084,-1.706978 22.26597,-0.901211 23.71139,1.04492 0.99549,1.34039 1.3021,15.38061 1.07133,49.05657 l -0.32327,47.17868 -95.87842,0.35137 c -52.733115,0.19324 -96.250138,-0.064 -96.704498,-0.57175 z m 189.512918,-48.49308 0,-45.28298 -10.43797,0 -10.43793,0 0,36.37448 0,36.37445 -72.75862,-0.35391 -72.758618,-0.35394 -0.327383,-36.02053 -0.32738,-36.02055 -10.417562,0 -10.417562,0 0,45.28298 0,45.28294 93.941505,0 93.94152,0 z M 96.273463,160.73902 c -7.22026,-3.78964 -9.429506,-6.31208 -12.799441,-14.61397 -3.20629,-7.89878 -3.205579,-15.4354 0.0026,-22.83993 9.876714,-22.79868 42.128518,-22.03167 50.802838,1.2082 5.38002,14.41388 -1.30619,31.25993 -14.94125,37.64476 -6.17553,2.89179 -16.0277,2.29416 -23.064299,-1.39906 z m 25.783347,-4.22222 c 7.46268,-4.88702 12.40034,-15.69324 11.15313,-24.40886 -1.4738,-10.29914 -7.74474,-17.7269 -17.82188,-21.10961 -6.22506,-2.08962 -7.13232,-2.08099 -13.50792,0.12859 -11.257671,3.90162 -17.272616,12.27864 -17.272616,24.05563 0,10.34025 7.537461,21.436 16.805066,24.73845 5.84463,2.08271 14.42644,0.66756 20.64422,-3.40425 z M 12.723857,85.447072 C 12.3872,84.466723 12.259835,68.238379 12.440829,49.384089 L 12.769895,15.103566 107.8044,14.751992 c 69.18817,-0.255945 95.48868,0.06957 96.70448,1.197186 2.47885,2.298864 2.44229,67.398795 -0.0391,69.700062 -1.13688,1.054353 -6.58476,1.455189 -16.27092,1.197186 l -14.56175,-0.387884 -0.33987,-20.252339 -0.33989,-20.252339 -64.12978,0.355278 -64.129773,0.355279 -0.613999,19.897061 -0.613996,19.89706 -15.066879,0.385496 c -11.476385,0.29364 -15.212765,-0.03924 -15.679009,-1.396966 z m 29.177177,-21.973065 0.340707,-19.554008 66.618649,-0.354881 66.61864,-0.354867 0,19.908875 0,19.908889 13.50796,0 13.50792,0 0,-32.246961 0,-32.24696 -93.94152,0 -93.941505,0 0,32.24696 0,32.246961 13.474221,0 13.47421,0 z"
       id="path2987-4"
       inkscape:connector-curvature="0"
       sodipodi:nodetypes="cssscccsssscscccccccccccccccccccsscccsscssccsscccsscccccccsscccscccccccccccccsss" />
  </g>
  <g
     inkscape:groupmode="layer"
     id="layer4"
     inkscape:label="Canaima"
     style="display:inline">
    <path
       style="fill:#000000;display:inline"
       d="m 235.65927,132.55646 c -6.57306,-1.12128 -11.39026,-4.64065 -14.27925,-10.43219 -2.46737,-4.94631 -2.46739,-4.94661 -2.46739,-35.348875 0,-34.008819 0.0514,-34.308639 6.97075,-40.614739 2.0862,-1.90132 5.49746,-3.93439 7.58059,-4.51792 4.44589,-1.24541 47.77397,-1.43925 49.67556,-0.22224 0.92724,0.59343 1.20048,3.27675 0.99128,9.73469 l -0.28881,8.91543 -21.80834,0.5 -21.80834,0.5 -0.26424,26.230819 -0.26424,26.230825 22.07258,0.26917 22.07258,0.26918 0.28881,8.91543 c 0.2092,6.45794 -0.064,9.14125 -0.99128,9.73469 -1.60464,1.02696 -41.30228,0.88962 -47.48026,-0.16427 z m 46.49141,-9.23585 -0.29125,-7.25 -22.07157,-0.26917 -22.07156,-0.26918 0.26322,-28.230825 0.26323,-28.230819 21.80834,-0.5493 c 11.99458,-0.30211 21.91986,-0.63961 22.05616,-0.75 0.1363,-0.11039 0.24782,-3.3507 0.24782,-7.2007 l 0,-7 -24.09248,0 -24.09249,0 -4.71892,3.01895 c -3.36865,2.15511 -5.27984,4.29813 -6.6792,7.48943 -1.83345,4.18126 -1.94154,6.39577 -1.6707,34.231039 l 0.28957,29.760575 2.81997,4.19238 c 5.20472,7.73772 7.5745,8.30593 34.64459,8.30683 l 23.58652,7.9e-4 z m 9.78685,9.58333 c -1.18456,-1.19496 -0.72691,-3.90302 4.22643,-25.00887 2.68802,-11.453443 7.28168,-31.174454 10.20815,-43.824454 l 5.32084,-23 19.28268,0 19.28268,0 3.10591,12.5 c 10.53101,42.382881 18.26106,75.618044 18.00619,77.417224 -0.27648,1.95167 -0.91905,2.08277 -10.20793,2.08277 l -9.91288,0 -2.06131,-8 -2.0613,-8 -15.98494,-0.27455 -15.98495,-0.27456 -1.02207,3.82904 c -0.56214,2.10596 -1.31417,5.37951 -1.67118,7.27455 -1.04793,5.56245 -1.7715,5.94552 -11.23047,5.94552 -4.74925,0 -8.93239,-0.3 -9.29585,-0.66667 z m 76.6532,-3.08333 c -0.009,-2.4254 -5.50108,-26.64924 -13.38202,-59.022654 l -6.63923,-27.27266 -17.45808,0.27266 -17.45809,0.27266 -0.8674,4 c -2.10688,9.71578 -18.06104,76.958894 -19.16873,80.791744 -0.47279,1.63596 0.19654,1.76638 7.69852,1.5 l 8.21633,-0.29175 0.8175,-4 c 0.44964,-2.2 1.26894,-5.69757 1.82068,-7.77239 l 1.00316,-3.77238 17.98449,0.27238 17.98448,0.27239 1.68168,6.72538 c 2.61086,10.44145 1.90769,9.77462 10.30735,9.77462 6.45184,0 7.4649,-0.23767 7.45936,-1.75 z m -51.19396,-29.78118 c -0.32036,-0.842155 0.55513,-6.354658 1.94552,-12.250015 1.39039,-5.895339 3.52574,-15.106299 4.74523,-20.468799 l 2.21724,-9.75 5.17002,0 c 4.56246,0 5.22482,0.26441 5.63638,2.25 0.25651,1.2375 2.33957,10.52564 4.62904,20.64032 2.28947,10.114667 3.92992,19.002189 3.64546,19.750004 -0.80722,2.12204 -27.17792,1.96044 -27.98889,-0.17151 z m 25.42688,-1.905093 c 0,-0.23995 -1.30788,-5.989694 -2.90639,-12.777202 -1.59851,-6.787489 -3.42862,-15.366169 -4.06691,-19.063709 -1.1554,-6.69308 -1.17491,-6.72281 -4.41272,-6.72281 -2.56909,0 -3.35333,0.47259 -3.73374,2.25 -0.26487,1.2375 -1.68726,7.425 -3.16088,13.75 -1.47361,6.325 -3.27671,14.087499 -4.00687,17.250006 l -1.32757,5.750005 11.80754,0 c 6.49414,0 11.80754,-0.19633 11.80754,-0.43629 z m 38.89783,34.605563 c -0.98123,-0.62838 -1.19396,-10.55027 -0.99129,-46.234685 l 0.25805,-45.434599 24.28656,0 24.28656,0 0.25988,37.25 0.25989,37.249994 3.95309,0 3.95309,0 0.0152,-36.249994 c 0.008,-19.9375 0.38019,-36.83038 0.82631,-37.53973 0.59085,-0.93947 3.34611,-1.21105 10.14553,-1 l 9.3344,0.28973 0.25774,46.267799 0.25773,46.267795 -24.04865,-0.2678 -24.04865,-0.2678 -0.26003,-36.749983 -0.26004,-36.750011 -3.95294,0 -3.95294,0 0,35.964831 c 0,34.533883 -0.0763,36.005983 -1.9174,36.999983 -2.24628,1.21273 -16.83799,1.37261 -18.66205,0.20447 z m 17.84105,-38.419273 0.26018,-36.250011 6.44338,0 6.44337,0 0.26018,36.250011 0.2602,36.249983 21.79596,0 21.79598,0 0,-43.499995 0,-43.499999 -7.91809,0 -7.91809,0 -0.26004,36.75 -0.26003,36.749994 -6.19555,0.29772 -6.19555,0.29771 0,-37.047714 0,-37.04771 -22.30399,0 -22.30398,0 0,43.499999 0,43.499995 7.91794,0 7.91794,0 z m 69.6999,38.330853 c -0.30971,-0.50552 0.34155,-4.89302 1.44723,-9.75 5.26433,-23.124825 10.52206,-45.511604 14.75634,-62.830864 l 4.64521,-19 19.2391,0 19.23909,0 6.11581,25 c 10.52601,43.027864 14.1688,58.865324 14.49065,62.999994 l 0.31136,4 -9.91288,0 -9.91288,0 -2.06231,-8 -2.0623,-8 -16.2401,0 -16.2401,0 -1.58446,7.04071 c -0.87145,3.87239 -1.91784,7.58489 -2.32532,8.25 -0.88723,1.44818 -19.03292,1.71271 -19.90444,0.29016 z m 77.76657,-2.03636 c 0,-0.52551 -1.56982,-7.61301 -3.48849,-15.75 -1.91868,-8.13697 -3.93317,-16.819493 -4.47668,-19.294493 -1.05872,-4.821254 -7.86865,-34.109101 -10.52141,-45.250011 l -1.60724,-6.75 -17.54598,0 -17.54598,0 -3.62538,15.25 c -1.99396,8.3875 -4.28397,18.4 -5.08893,22.25 -0.80495,3.849999 -3.70776,16.414271 -6.45068,27.920584 -2.74292,11.50632 -4.98713,21.06882 -4.98713,21.25 0,0.18117 3.55145,0.32941 7.8921,0.32941 l 7.8921,0 1.04138,-4.25 c 0.57276,-2.3375 1.50002,-5.9375 2.06057,-8 l 1.0192,-3.75 17.76519,0 17.76518,0 0.97458,3.75 c 0.53601,2.0625 1.28403,5.1 1.66227,6.75 1.42545,6.21842 1.85282,6.5 9.86554,6.5 4.06989,0 7.39979,-0.42997 7.39979,-0.95549 z M 495.46989,99.820615 c -0.0104,-1.500308 7.44285,-37.455359 8.49904,-40.999999 0.42569,-1.42867 9.91112,-1.77141 10.75821,-0.38873 0.6938,1.13245 7.52034,33.416907 8.22302,38.888741 l 0.54576,4.249993 -14.00695,0 c -12.67447,0 -14.0081,-0.16648 -14.01908,-1.750005 z m 25.38459,-2.999988 c -0.29404,-0.9625 -2.10802,-8.725012 -4.03106,-17.250011 -1.92305,-8.525 -3.72838,-16.5125 -4.01186,-17.75 -0.38678,-1.68848 -1.22386,-2.25 -3.3541,-2.25 -3.11889,0 -2.7621,-1.04421 -9.055,26.499999 -1.13091,4.949998 -2.28463,9.787512 -2.56383,10.750012 -0.46374,1.59866 0.53265,1.75 11.52142,1.75 10.99906,0 11.98328,-0.14985 11.49443,-1.75 z m 38.52386,35.499983 c -0.26134,-0.6875 -0.35887,-21.5 -0.21671,-46.249995 l 0.25847,-44.999999 9.91288,0 9.91289,0 0.25812,44.885009 c 0.18579,32.307905 -0.0565,45.267495 -0.86484,46.250005 -1.51713,1.84408 -18.56481,1.94585 -19.26081,0.11498 z m 17.38931,-45.249995 0,-43.499999 -7.93031,0 -7.9303,0 0,43.499999 0,43.499995 7.9303,0 7.93031,0 z m 16.31449,45.249995 c -0.26135,-0.6875 -0.35887,-21.5 -0.21671,-46.249995 l 0.25847,-44.999999 23.29527,0 23.29527,0 0.25989,37.25 0.25988,37.249994 3.44538,0 3.44538,0 0.25989,-37.249994 0.25989,-37.25 22.57124,-0.84947 c 12.41418,-0.46721 23.23607,-0.5921 24.04865,-0.27755 1.28477,0.49735 1.44381,6.60629 1.21968,46.849469 l -0.25774,46.277545 -8.9216,0 -8.92159,0 -0.26003,-36.749983 -0.26004,-36.750011 -4.44858,0 -4.44859,0 0,37.000011 0,36.999983 -23.18921,0 c -20.23108,0 -23.26597,-0.20178 -23.79091,-1.58179 -0.33095,-0.86998 -0.60171,-17.51998 -0.60171,-36.999983 l 0,-35.418221 -3.46951,0 -3.4695,0 0,35.964831 c 0,34.533883 -0.0763,36.005983 -1.91741,36.999983 -2.81732,1.52103 -17.85245,1.34594 -18.44576,-0.21482 z m 17.3893,-38.297703 0,-36.547731 6.19555,0.29772 6.19555,0.29772 0.26019,36.250011 0.26019,36.249983 21.30032,0 21.30034,0 0,-36.499983 0,-36.500011 6.44337,0 6.44337,0 0,36.500011 0,36.499983 7.43466,0 7.43466,0 0,-43.999995 0,-43.999999 -6.19555,0.003 c -3.40755,0.002 -13.21588,0.29705 -21.79628,0.65605 l -15.60073,0.65276 -0.25988,36.59394 -0.25988,36.593944 -5.6999,0.2999 -5.69991,0.29991 0,-37.049904 0,-37.0499 -21.80834,0 -21.80834,0 0,43.499999 0,43.499995 7.93031,0 7.9303,0 0,-36.547703 z m 94.48558,37.928713 c -0.60604,-1.59321 2.60198,-16.45517 13.35729,-61.881004 2.9951,-12.65 5.73511,-24.35 6.08891,-26 l 0.64328,-3 19.28948,0 19.28948,0 4.57118,18.5 c 11.07902,44.837694 16.89066,69.980204 16.56731,71.673974 -0.30976,1.62265 -1.45111,1.82602 -10.2479,1.82602 l -9.8993,0 -2.06131,-8 -2.0613,-8 -15.98494,-0.27455 -15.98495,-0.27456 -1.02207,3.82904 c -0.56213,2.10596 -1.31417,5.37951 -1.67118,7.27455 -1.05101,5.57884 -1.75575,5.94552 -11.42679,5.94552 -7.2241,0 -8.94342,-0.29464 -9.44719,-1.61899 z m 77.00727,-1.66544 c 0,-2.2478 -6.72547,-32.130323 -13.47593,-59.876154 l -6.52994,-26.83941 -17.58431,0 -17.58432,0 -1.72174,8.25 c -2.57074,12.31812 -7.08781,31.84104 -12.55198,54.250004 -2.68222,10.99999 -5.11775,21.0309 -5.41229,22.29091 -0.52906,2.26326 -0.43688,2.2874 7.63715,2 l 8.17267,-0.29092 0.87129,-4 c 0.47921,-2.2 1.29527,-5.69757 1.81347,-7.77239 l 0.94216,-3.77238 17.98449,0.27238 17.98449,0.27239 1.68167,6.72538 c 2.61086,10.44145 1.90769,9.77462 10.30735,9.77462 5.41849,0 7.46577,-0.35222 7.46577,-1.28443 z M 730.41141,99.820615 c -0.003,-0.96249 2.08387,-10.8625 4.63805,-21.999999 l 4.64396,-20.25 5.10832,0 5.10831,0 2.2424,9.75 c 4.65598,20.244369 7.02195,32.425109 6.47243,33.322064 -0.31269,0.51037 -6.7873,0.92794 -14.38805,0.92794 -12.49835,0 -13.82009,-0.1673 -13.82542,-1.750005 z m 25.77939,-1.517828 c 0,-0.14731 -1.94225,-8.809832 -4.31612,-19.250011 l -4.31612,-18.98216 -2.94957,-0.30065 c -2.8128,-0.2867 -3.00543,-0.0549 -4.1546,5 -0.66279,2.91536 -2.6871,11.71315 -4.49849,19.55065 l -3.29344,14.250011 11.76418,0 c 6.47028,0 11.76416,-0.12053 11.76416,-0.26784 z M 561.97438,30.981716 c -2.53944,-2.15557 -3.04992,-3.31232 -3.04992,-6.9111 0,-3.59879 0.51048,-4.75553 3.04992,-6.91111 7.99653,-6.787772 20.55877,1.19807 16.69335,10.61201 -2.45935,5.98958 -11.39471,7.70789 -16.69335,3.2102 z m 10.86298,-0.92929 c 3.51144,-1.8318 4.57935,-5.34339 2.77799,-9.13482 -1.88751,-3.97278 -5.85209,-5.162841 -10.21213,-3.06541 -7.18528,3.45653 -4.86319,13.25657 3.23553,13.65503 0.70858,0.0349 2.59795,-0.6198 4.19861,-1.4548 z"
       id="path2987-9"
       inkscape:connector-curvature="0"
       sodipodi:nodetypes="ssssssscccccccsssccccccssscccssscsscccsscccssscccccsssccscccssscsscccsscssscsssssssssssscssssccccccccsscccccccccscscccccccccccccccccccccccccssscccsscccccccssssssscccssssscsscccsssssssscsssssssssscscccscccccccccccsscccccccccssscccccccccssscccscscccccccccccccccccccscccccccccccccccssscccssscccccsssssscccsssscsscccssscscccssscsscssscsssssssssscs" />
  </g>
  <g
     inkscape:groupmode="layer"
     id="layer5"
     inkscape:label="Universitario"
     style="display:inline">
    <path
       style="fill:#000000;display:inline"
       d="m 306.76526,187.58655 c -1.65,-0.51485 -4.2375,-2.0912 -5.75,-3.50301 l -2.75,-2.56692 0,-15.95953 0,-15.95954 4.5,0 4.5,0 0,13.50001 c 0,12.16667 0.19753,13.69753 2,15.5 2.40261,2.40261 4.78621,2.53847 7.77749,0.4433 2.11598,-1.48209 2.22251,-2.22502 2.22251,-15.5 l 0,-13.94331 5,0 5,0 -0.002,14.25001 c -0.002,16.06367 -1.16807,20.13435 -6.49845,22.68098 -3.69786,1.76668 -11.97479,2.314 -16,1.05801 z m 12.92715,-2.61887 c 6.61745,-2.25479 7.57285,-4.88373 7.57285,-20.838 l 0,-12.53213 -3,0 -3,0 0,13.94331 c 0,13.27498 -0.10653,14.01791 -2.22251,15.5 -2.63219,1.84366 -8.62344,1.99526 -10.86415,0.2749 -3.22428,-2.47553 -3.91334,-5.58377 -3.91334,-17.65246 0,-11.39907 -0.11051,-12.06575 -2,-12.06575 -1.90438,0 -2,0.66668 -2,13.94425 0,13.05024 0.14425,14.10517 2.25,16.4545 2.05123,2.28851 6.83417,4.28227 10.82186,4.51107 0.86452,0.0496 3.72441,-0.64326 6.35529,-1.53969 z m 182.07285,3.13283 c -0.55,-0.18654 -2.71412,-0.6264 -4.80915,-0.97747 -3.57276,-0.59869 -3.78997,-0.83649 -3.5,-3.83189 l 0.30915,-3.19359 7.59797,0.3306 c 6.0391,0.26278 7.9365,-0.008 9.24801,-1.31944 2.55824,-2.55824 0.56999,-4.85718 -5.98883,-6.92467 -7.75112,-2.44332 -10.14669,-4.16472 -11.22362,-8.06504 -2.8684,-10.3885 4.6043,-16.45836 18.43827,-14.97687 8.13031,0.87068 9.90571,2.06925 8.50854,5.74411 -1.02635,2.69951 -1.11201,2.72233 -7.86226,2.09496 -5.744,-0.53385 -7.10456,-0.35431 -8.59277,1.13389 -2.31821,2.31821 -0.92729,3.66385 6.15573,5.95531 2.90457,0.93968 6.61707,2.8327 8.25,4.20672 2.5115,2.11329 2.96838,3.2164 2.96522,7.15932 -0.005,6.35191 -2.64558,10.43986 -7.7266,11.96217 -3.75302,1.12443 -9.5113,1.46783 -11.76966,0.70189 z m 13.20865,-4.04945 c 3.26373,-2.1359 4.89988,-8.41104 3.14716,-12.07033 -1.08604,-2.26744 -2.88215,-3.41707 -8.41027,-5.38317 -8.79649,-3.12851 -9.44554,-3.5743 -9.44554,-6.48759 0,-4.33468 2.53408,-5.66171 10.32875,-5.4089 4.54505,0.14741 7.19453,-0.17336 7.43687,-0.90038 0.67334,-2.02001 -9.83069,-3.53198 -14.95378,-2.15247 -5.31913,1.4323 -7.81184,4.14293 -7.81184,8.49479 0,4.52868 3.26257,7.90758 9.12779,9.45326 7.4963,1.97551 9.34222,3.25703 9.68098,6.72093 0.46491,4.75389 -2.9093,6.55968 -11.44145,6.12317 -4.56568,-0.23359 -6.82714,0.0372 -7.0981,0.84983 -0.24052,0.72139 1.10949,1.44523 3.41657,1.83189 2.09781,0.35159 4.26421,0.81196 4.81421,1.02304 1.83375,0.70376 8.97097,-0.62966 11.20865,-2.09407 z m 150.79135,3.1011 c -7.25694,-2.6841 -10.04526,-9.01571 -9.27207,-21.0546 0.8239,-12.82842 4.99514,-16.86343 17.48594,-16.91479 5.71035,-0.0235 7.79457,0.39484 10,2.00709 4.69898,3.43513 6.74067,8.84418 6.7594,17.9077 0.0181,8.77452 -1.67118,13.07518 -6.57017,16.72641 -3.48659,2.59857 -13.09377,3.29193 -18.4031,1.32819 z m 16.23607,-3.11907 c 4.46599,-2.92274 5.76623,-6.3019 5.73002,-14.89155 -0.0543,-12.88981 -3.88023,-17.8297 -13.80892,-17.8297 -6.98292,0 -11.71232,2.59841 -13.35073,7.3351 -2.44399,7.06566 -1.14733,21.17793 2.2012,23.95696 4.73272,3.92781 14.32149,4.64051 19.22843,1.42919 z m -14.85037,-3.327 c -1.99796,-1.61785 -2.39143,-2.99171 -2.71994,-9.49705 -0.63245,-12.52444 1.55228,-16.61148 8.87969,-16.61148 7.47471,0 10.83551,6.17536 9.64395,17.72043 -0.75404,7.30601 -3.43063,10.27957 -9.25293,10.27957 -2.64432,0 -5.08531,-0.70481 -6.55077,-1.89147 z m 11.04222,-2.03645 c 2.55784,-2.55784 3.64671,-10.21078 2.1592,-15.17565 -2.22811,-7.43674 -9.43758,-8.98698 -12.67547,-2.72558 -2.47212,4.78056 -1.57672,15.46732 1.50504,17.96277 2.96676,2.40234 6.57197,2.37772 9.01123,-0.0615 z m -341.92792,-10.07208 0,-19.00001 7.02144,0 c 8.14585,0 7.05783,-1.36258 12.37671,15.50001 l 3.46968,11 0.0661,-13.25 0.0661,-13.25001 5,0 5,0 0,19.04207 0,19.04207 -7.65767,-0.29207 -7.65767,-0.29206 -1.89453,-5.5 c -1.04199,-3.025 -2.97209,-9.1 -4.2891,-13.5 l -2.39458,-8 -0.0532,13.75 -0.0532,13.75 -4.5,0 -4.5,0 0,-19 z m 6.91496,2.25 c -0.2026,-13.81526 -0.0979,-14.75 1.65246,-14.75 1.52793,0 2.70656,2.64467 6.46208,14.5 l 4.5933,14.5 5.6886,0.2999 5.6886,0.29991 0,-17.04991 0,-17.04991 -3,0 -3,0 0,15.07333 c 0,13.33425 -0.18608,15.03603 -1.61285,14.75 -1.12177,-0.22487 -3.02479,-4.81313 -6.25,-15.06904 l -4.63715,-14.74574 -5.25,-0.004 -5.25,-0.004 0,17.00001 0,17 2.56563,0 2.56564,0 -0.21631,-14.75 z m 32.52912,15.46487 c -0.27123,-0.70683 -0.36961,-9.14433 -0.21862,-18.75 l 0.27454,-17.46488 4.75,-0.30479 4.75,-0.30479 0,19.0548 0,19.05479 -4.53138,0 c -2.76869,0 -4.72322,-0.49991 -5.02454,-1.28513 z m 7.55592,-17.71487 0,-17.00001 -2.5,0 -2.5,0 0,17.00001 0,17 2.5,0 2.5,0 z m 14.11278,15.28965 c -0.54212,-2.08431 -2.58927,-9.89232 -4.54922,-17.35114 -1.95996,-7.45882 -3.56356,-14.32132 -3.56356,-15.25001 0,-1.35161 0.96366,-1.68851 4.82971,-1.68851 l 4.8297,0 3.34833,14.75001 c 1.84157,8.1125 3.4932,14.9375 3.67029,15.16667 0.78404,1.01463 1.47827,-1.37104 3.92803,-13.49824 1.43527,-7.10514 3.02689,-13.70593 3.53694,-14.66844 0.67136,-1.26689 2.15993,-1.75 5.39218,-1.75 2.45565,0 4.47022,0.3375 4.47682,0.75 0.007,0.4125 -1.18364,5.70001 -2.64496,11.75001 -1.46133,6.05 -3.40601,14.15 -4.32152,18 l -1.66456,7 -8.14126,0.28965 -8.14126,0.28964 z m 15.51468,-1.03965 c 0.36606,-1.5125 2.17463,-8.78577 4.01905,-16.16281 1.84442,-7.37705 3.35349,-13.78955 3.35349,-14.25 0,-0.46046 -1.03497,-0.8372 -2.29992,-0.8372 -2.01937,0 -2.45454,0.76241 -3.56745,6.25001 -0.69713,3.4375 -2.19835,10.21149 -3.33605,15.0533 -1.97582,8.40876 -2.18314,8.78971 -4.62587,8.5 -2.78593,-0.33041 -2.41062,0.71186 -7.22097,-20.0533 -2.17925,-9.4073 -2.35481,-9.75001 -4.99468,-9.75001 l -2.73604,0 2.93119,11.75001 c 1.61216,6.4625 3.60045,14.1125 4.41843,17 l 1.48723,5.25 5.95301,0 c 5.66618,0 5.98508,-0.1325 6.61858,-2.75 z m 14.37254,-14.22097 0,-19.02904 13.56037,0 13.56036,0 -0.31036,3.75001 -0.31037,3.75 -8.25,0.29044 -8.25,0.29044 0,3.41387 0,3.41387 6.75,0.29569 6.75,0.29569 0,3.5 0,3.5 -6.75,0.29569 -6.75,0.29569 0,3.41387 0,3.41387 8.25,0.29044 8.25,0.29044 0,3.5 0,3.5 -13.25,0.27903 -13.25,0.27902 z m 24,15.01141 c 0,-1.76426 -0.82223,-1.9885 -8.25,-2.25 l -8.25,-0.29044 0,-5 0,-5 6.75,-0.29569 c 5.87233,-0.25724 6.75,-0.54386 6.75,-2.20431 0,-1.66045 -0.87767,-1.94707 -6.75,-2.20431 l -6.75,-0.29569 0,-5 0,-5 8.25,-0.29044 c 7.42777,-0.2615 8.25,-0.48574 8.25,-2.25 0,-1.82733 -0.74234,-1.95957 -11,-1.95957 l -11,0 0,17.00001 0,17 11,0 c 10.25766,0 11,-0.13224 11,-1.95956 z m 8,-15.04044 0,-19.00001 10.35078,0 c 12.08046,0 16.14908,1.13216 18.1796,5.05877 2.15241,4.16229 1.85512,11.48302 -0.64711,15.93514 l -2.11672,3.76621 2.11672,5.65746 c 1.1642,3.1116 2.11673,6.09057 2.11673,6.61994 0,0.52937 -2.19513,0.96249 -4.87807,0.96249 l -4.87808,0 -2.24385,-6 c -2.13405,-5.7064 -2.40915,-6 -5.62193,-6 l -3.37807,0 0,6 0,6 -4.5,0 -4.5,0 z m 7.20228,10.75 c 0.28855,-6.05757 0.38611,-6.2601 3.16855,-6.57808 5.70183,-0.65161 7.23904,0.43693 9.6244,6.81533 1.88272,5.03435 2.63558,6.01275 4.6267,6.01275 2.86594,0 2.84794,0.26196 0.37807,-5.5 -2.51002,-5.85564 -2.50419,-7.33441 0.0396,-10.04215 2.68087,-2.85366 3.55758,-8.60191 1.91629,-12.56434 -1.80201,-4.35044 -6.10216,-5.89352 -16.42377,-5.89352 l -8.53212,0 0,17.00001 0,17 2.45228,0 c 2.30971,0 2.46959,-0.36337 2.75,-6.25 z m 0.46439,-10.41667 c -0.36667,-0.36666 -0.66667,-3.51666 -0.66667,-7 l 0,-6.33333 6.34501,0 c 7.43685,0 9.65499,1.6481 9.65499,7.17375 0,5.01499 -2.43104,6.82625 -9.16207,6.82625 -3.02753,0 -5.8046,-0.3 -6.17126,-0.66667 z m 11.83685,-3.69835 c 1.17793,-1.79775 1.30932,-2.99704 0.5478,-5 -0.89884,-2.36412 -1.51833,-2.63498 -6.02657,-2.63498 l -5.02475,0 0,5 0,5 4.47695,0 c 3.60379,0 4.77917,-0.46126 6.02657,-2.36502 z m 47.49648,3.36502 0,-19.00001 5,0 5,0 0,19.00001 0,19 -5,0 -5,0 z m 8,0 0,-17.00001 -3,0 -3,0 0,17.00001 0,17 3,0 3,0 z m 15.66667,18.33333 c -0.36667,-0.36666 -0.66667,-7.11666 -0.66667,-15 l 0,-14.33333 -5,0 -5,0 0,-4 0,-4.00001 14.94098,0 c 8.21754,0 15.13896,0.3375 15.38093,0.75 0.24197,0.4125 0.21746,2.21251 -0.0545,4.00001 -0.4801,3.15581 -0.63604,3.25 -5.38093,3.25 l -4.8865,0 0,15 0,15 -4.33333,0 c -2.38334,0 -4.63334,-0.3 -5,-0.66667 z m 7.33333,-16.33333 0,-15 5,0 c 4.33333,0 5,-0.26667 5,-2 0,-1.89745 -0.66667,-2.00001 -13,-2.00001 -12.21707,0 -13,0.1173 -13,1.94775 0,1.64461 0.81708,1.99478 5.25,2.25 l 5.25,0.30226 0.27673,14.75 0.27674,14.75 2.47326,0 2.47327,0 z m 10.9961,15.80479 c -0.002,-0.71763 1.90268,-9.29229 4.23295,-19.05479 l 4.23685,-17.75001 8.248,0 c 8.17832,0 8.25332,0.0232 8.8784,2.75001 0.34672,1.5125 2.3803,9.81725 4.51905,18.455 2.13876,8.63775 3.88865,15.95025 3.88865,16.25 0,0.29975 -2.21425,0.545 -4.92054,0.545 -4.67049,0 -4.95454,-0.15477 -5.58943,-3.0454 -0.666,-3.03229 -0.69522,-3.04412 -6.78811,-2.75 -5.59789,0.27023 -6.16878,0.50839 -6.70082,2.7954 -0.50478,2.16981 -1.20364,2.54026 -5.29134,2.80479 -3.36092,0.2175 -4.71088,-0.0689 -4.71366,-1 z m 8.00675,-3.80479 c 0.55528,-2.38548 0.95867,-2.51332 8.8064,-2.79071 l 8.22446,-0.29072 0.60815,3.04072 c 0.47267,2.36337 1.13718,3.04071 2.98314,3.04071 1.30625,0 2.375,-0.24789 2.375,-0.55087 0,-0.30298 -1.5252,-6.71548 -3.38934,-14.25 -1.86413,-7.53452 -3.67271,-14.93663 -4.01905,-16.44913 -0.60488,-2.64156 -0.87761,-2.75001 -6.91543,-2.75001 l -6.28572,0 -2.80056,11.75001 c -1.54032,6.4625 -3.37485,14.13724 -4.07674,17.05499 l -1.27616,5.30499 2.59195,-0.30499 c 1.81667,-0.21376 2.76602,-1.05277 3.1739,-2.80499 z m 2.5845,-7.85866 c -0.74661,-1.20805 2.3897,-17.36584 3.67629,-18.9396 0.58374,-0.71404 2.00073,-1.16404 3.14885,-1 1.65789,0.23688 2.43363,1.636 3.76929,6.79826 0.92497,3.575 1.71247,8.1875 1.75,10.25 l 0.0682,3.75 -5.94098,0 c -3.26754,0 -6.17979,-0.3864 -6.47167,-0.85866 z m 8.64278,-8.89134 c -0.81175,-3.7125 -1.82455,-7.13144 -2.25066,-7.59764 -0.597,-0.65316 -3.97947,11.07237 -3.97947,13.79505 0,0.30392 1.73386,0.55259 3.85303,0.55259 l 3.85302,0 z m 18.76987,2.75 0,-19.00001 10.03212,0 c 15.33626,0 19.96788,2.84658 19.96788,12.27218 0,4.87891 -2.00551,10.22967 -4.09525,10.92625 -0.76109,0.25369 -0.27183,2.54251 1.47896,6.9188 1.43896,3.59684 2.61629,6.86541 2.61629,7.2635 0,0.39809 -2.33697,0.58778 -5.19328,0.42154 l -5.19327,-0.30226 -2.19896,-5.5 c -1.93816,-4.84769 -2.56755,-5.53717 -5.30673,-5.81336 l -3.10776,-0.31336 0,6.06336 0,6.06336 -4.5,0 -4.5,0 z m 7.20228,10.75 0.29772,-6.25 4.08647,-0.29951 c 4.72183,-0.34607 5.47873,0.32757 8.21077,7.30761 1.57348,4.02006 2.4648,5.0535 4.57831,5.30832 1.44345,0.17403 2.62445,0.11753 2.62445,-0.12557 0,-0.24309 -1.14625,-3.03386 -2.54722,-6.20171 -2.51934,-5.69666 -2.52618,-5.78286 -0.62496,-7.87443 4.41719,-4.85945 5.2786,-9.57446 2.67058,-14.61781 -1.88946,-3.6538 -6.3524,-4.98385 -16.7484,-4.99133 l -7.75,-0.006 0,17.00001 0,17 2.45228,0 c 2.30971,0 2.46959,-0.36337 2.75,-6.25 z m 0.46439,-10.41667 c -0.36667,-0.36666 -0.66667,-3.51666 -0.66667,-7 l 0,-6.33333 6.4433,0 c 5.5247,0 6.66523,0.31685 8,2.22251 4.12859,5.89439 0.0869,11.77749 -8.09108,11.77749 -2.76039,0 -5.31889,-0.3 -5.68555,-0.66667 z m 11.13333,-2.53333 c 0.66,-0.66 1.2,-2.37 1.2,-3.8 0,-3.68595 -1.76082,-5 -6.7,-5 l -4.3,0 0,5 0,5 4.3,0 c 2.365,0 4.84,-0.54 5.5,-1.2 z m 17.2,2.2 0,-19.00001 4.5,0 4.5,0 0,19.00001 0,19 -4.5,0 -4.5,0 z m 6.77418,0.25 c -0.27032,-16.51426 -0.30585,-16.7545 -2.52418,-17.06956 l -2.25,-0.31955 0,17.06956 0,17.06955 2.52418,0 2.52418,0 z"
       id="path2987-92"
       inkscape:connector-curvature="0"
       sodipodi:nodetypes="cscccccssssccccsccsscccsssssssssssscscsssssssscssssssssssssscsssssssssssssssssssssscsssccccsscccccccccssccccccccsscccccccscscccccccccsscccccsscccccccccsssscssssscsscccsssssssssscsscsscccccccccccccccccccccccccsscccssscccssscccssccssscssscssccccccsssssssscccsscscssscssscccsscccccccccccccccccccscccccsscscccsccccssssscccccccscssssssssscsscsssssscsscsscsssscsccsssscsccsssssscssccccccccsssssssccccscccscssscssscccsscccccccccsscccccs" />
  </g>
</svg>
