<?xml version="1.0" encoding="UTF-8" standalone="no"?>
<!-- Created with Inkscape (http://www.inkscape.org/) -->

<svg
   xmlns:dc="http://purl.org/dc/elements/1.1/"
   xmlns:cc="http://creativecommons.org/ns#"
   xmlns:rdf="http://www.w3.org/1999/02/22-rdf-syntax-ns#"
   xmlns:svg="http://www.w3.org/2000/svg"
   xmlns="http://www.w3.org/2000/svg"
   xmlns:sodipodi="http://sodipodi.sourceforge.net/DTD/sodipodi-0.dtd"
   xmlns:inkscape="http://www.inkscape.org/namespaces/inkscape"
   id="svg2"
   version="1.1"
   inkscape:version="0.48.3.1 r9886"
   width="480"
   height="480"
   sodipodi:docname="perfil.svg"
   inkscape:export-filename="/media/Datos/Downloads/CanaimaUniversitario/css/cu2.png"
   inkscape:export-xdpi="93.75"
   inkscape:export-ydpi="93.75">
  <metadata
     id="metadata8">
    <rdf:RDF>
      <cc:Work
         rdf:about="">
        <dc:format>image/svg+xml</dc:format>
        <dc:type
           rdf:resource="http://purl.org/dc/dcmitype/StillImage" />
        <dc:title />
      </cc:Work>
    </rdf:RDF>
  </metadata>
  <defs
     id="defs6" />
  <sodipodi:namedview
     pagecolor="#ffffff"
     bordercolor="#666666"
     borderopacity="1"
     objecttolerance="10"
     gridtolerance="10"
     guidetolerance="10"
     inkscape:pageopacity="0"
     inkscape:pageshadow="2"
     inkscape:window-width="1280"
     inkscape:window-height="965"
     id="namedview4"
     showgrid="false"
     inkscape:zoom="0.98333333"
     inkscape:cx="222.57552"
     inkscape:cy="181.11961"
     inkscape:window-x="0"
     inkscape:window-y="27"
     inkscape:window-maximized="1"
     inkscape:current-layer="layer2" />
  <g
     inkscape:groupmode="layer"
     id="layer2"
     inkscape:label="Color"
     style="display:inline">
    <path
       style="fill:#6d8d24;fill-opacity:1;stroke:none;display:inline"
       d="m 106.84919,29.787162 c -1.78482,22.296472 -0.25673,45.224922 -0.76575,67.764767 0.60097,10.322911 -1.23002,21.172081 0.96728,31.149591 13.13621,1.81264 26.88894,0.26527 40.26314,0.7808 6.23768,-4.51609 1.98154,-15.45776 3.77902,-22.5835 0.45962,-12.19202 0.96011,-24.388936 0.85587,-36.592524 63.3839,0 126.76779,0 190.15166,0 0.3587,19.086104 -0.70601,38.480204 0.52381,57.377814 6.11299,4.03669 15.62326,0.71625 23.05371,1.79821 6.47697,-1.7379 19.09087,4.11362 20.99811,-4.31491 -0.34871,-31.48511 0.69772,-63.272078 -0.52381,-94.568307 -6.11299,-4.036684 -15.62326,-0.716252 -23.05371,-1.798207 -84.69099,0 -169.38195,0 -254.07294,0 l -1.17855,0.534074 -0.99784,0.452192 z"
       id="path3834"
       inkscape:connector-curvature="0" />
    <path
       style="fill:#6d8d24;fill-opacity:1;stroke:none;display:inline"
       d="m 106.84919,156.02934 c -1.78482,22.29645 -0.25673,45.22492 -0.76575,67.76476 0.34826,23.15672 -0.69717,46.61499 0.52379,69.58287 6.11301,4.03669 15.62326,0.71625 23.05371,1.79821 84.69099,0 169.38195,0 254.07294,0 6.25134,-4.58018 1.4203,-15.54608 2.94216,-22.72524 -0.34887,-38.49851 0.69794,-77.29902 -0.52381,-115.60865 -5.91138,-4.00292 -15.172,-0.76413 -22.40886,-1.79822 -9.14974,-2.44659 -15.36859,2.41357 -12.61498,12.20505 0,32.31396 0,64.62789 0,96.94185 -69.40633,0.17914 -138.81391,-0.27781 -208.2076,-1.68489 -0.15835,-35.20898 -0.0864,-70.75426 -2.26078,-105.72491 -5.91966,-3.88294 -14.99323,-0.73477 -22.16312,-1.7371 -3.83,0.44311 -8.16609,-1.02229 -11.6477,0.98627 z"
       id="path3836"
       inkscape:connector-curvature="0" />
    <path
       style="fill:#6d8d24;fill-opacity:1;stroke:none;display:inline"
       d="m 245.69458,164.5359 c -19.19219,2.41997 -37.49662,19.48813 -35.95067,40.31367 -0.24485,16.42835 10.50373,32.56637 25.14934,38.95753 20.45566,5.86866 44.47138,-7.01673 49.00899,-28.76612 5.12484,-18.8827 -5.23475,-40.1751 -23.3357,-46.92986 -4.62993,-2.171 -9.67666,-4.14485 -14.87196,-3.57522 z"
       id="path3838"
       inkscape:connector-curvature="0" />
    <path
       style="fill:#6d8d24;fill-opacity:1;stroke:none;display:inline"
       d="m 25.425723,340.22439 c -4.419987,3.20309 -9.785722,6.80811 -9.795329,13.00015 -1.113348,15.68076 -0.277177,31.45379 -0.54177,47.16939 2.737479,6.09886 8.396704,11.57932 15.472211,11.08189 11.409958,0.40299 22.992935,0.74131 34.311432,0.20546 2.091742,-3.25221 0.08222,-8.31781 0.536542,-12.27554 -2.502496,-3.29465 -8.176527,-0.8004 -11.961785,-1.6543 -7.693292,-0.092 -15.386845,-0.15829 -23.080315,-0.23424 0.356223,-14.15451 0.433998,-28.43903 1.061887,-42.51394 11.059912,-0.79696 22.307292,-0.50252 33.267014,-1.61036 2.246719,-2.5195 0.464644,-6.93448 1.059928,-10.13807 0.639577,-5.57255 -6.63599,-2.64146 -9.903674,-3.35983 -10.118125,0.22391 -20.400692,-0.44616 -30.426141,0.32939 z"
       id="path3840"
       inkscape:connector-curvature="0" />
    <path
       style="fill:#6d8d24;fill-opacity:1;stroke:none;display:inline"
       d="m 101.72949,339.93892 c -4.513843,0.31864 -9.439499,-0.38789 -13.609416,1.51521 -5.4908,22.72641 -10.831983,45.553 -15.841545,68.40443 1.327507,3.33089 6.075206,1.55956 8.820116,2.10812 4.290213,1.17935 7.088957,-1.21941 6.963545,-5.62496 0.933885,-3.60688 0.628934,-8.86945 5.822373,-7.02383 7.425947,0 14.851907,0 22.277857,0 1.55784,4.2232 1.14057,10.54401 5.56946,12.93426 3.71091,0.48882 8.08708,1.09452 11.50733,-0.65878 1.153,-4.22793 -1.4551,-8.7564 -1.82658,-13.05522 -4.45807,-19.33074 -8.59496,-38.90509 -13.7215,-57.97127 -4.08017,-1.58224 -9.29885,-0.23169 -13.81621,-0.67188 -0.71515,0.0147 -1.43028,0.0293 -2.14543,0.0439 z m 1.36527,13.70285 c 2.0857,-0.38999 4.00177,0.0709 3.79501,2.65608 2.03405,9.64798 4.70721,19.5361 5.80528,29.29526 -6.12242,0.83389 -12.729661,0.98438 -18.745473,-0.0879 -1.002409,-2.14603 0.872977,-5.24636 0.861589,-7.60417 1.729859,-8.10345 3.558628,-16.18662 5.423024,-24.25933 0.95352,0 1.90704,0 2.86057,0 z"
       id="path3842"
       inkscape:connector-curvature="0" />
    <path
       style="fill:#6d8d24;fill-opacity:1;stroke:none;display:inline"
       d="m 143.44628,340.42202 c -0.95969,11.9146 -0.13805,24.1669 -0.41176,36.21154 0.18718,11.43735 -0.37475,23.03576 0.28166,34.3722 3.17212,2.15198 8.17089,0.3816 12.04917,0.96092 4.8706,-0.33896 1.73362,-7.39682 2.6222,-10.73829 -0.0642,-15.63214 0.21665,-31.26454 0.84518,-46.88391 5.35947,-1.01303 8.38771,0.39684 7.07112,6.32235 0.62516,16.7565 0.44027,33.6757 0.99043,50.33893 3.28693,2.1571 8.40058,0.38274 12.39592,0.96092 7.98254,-0.34633 16.25719,0.70212 24.05486,-0.52703 0.9597,-11.9146 0.13805,-24.16687 0.41175,-36.21151 -0.18717,-11.43736 0.37475,-23.03578 -0.28165,-34.37222 -3.28694,-2.15709 -8.40057,-0.38275 -12.39592,-0.96092 -5.31241,-0.0977 -2.09181,7.33169 -2.96892,10.73829 0,16.09644 0,32.1929 0,48.28933 -4.19428,0.16562 -9.14582,1.09861 -7.23813,-4.91896 -0.18783,-17.6957 0.3752,-35.55289 -0.28166,-53.14774 -3.28694,-2.15709 -8.40058,-0.38275 -12.39591,-0.96092 -8.2026,0.34077 -16.73472,-0.68832 -24.74834,0.52702 z"
       id="path3844"
       inkscape:connector-curvature="0" />
    <path
       style="fill:#6d8d24;fill-opacity:1;stroke:none;display:inline"
       d="m 232.23257,340.0048 c -3.88196,-1.05764 -4.54308,3.22949 -4.92664,6.1399 -4.63478,21.2602 -10.06163,42.42908 -14.16554,63.75777 2.12844,3.54052 7.3902,1.4392 10.77051,2.06421 5.15714,1.24633 4.23453,-5.17359 5.48277,-8.38861 -0.31842,-5.29993 4.13774,-4.41575 8.01782,-4.17914 6.45828,0.0707 12.91629,0.1633 19.37438,0.24837 1.66982,4.04393 1.19821,10.34529 5.59113,12.56095 3.7109,0.58552 7.85726,0.62907 11.39897,-0.46117 0.55926,-7.00512 -2.61158,-13.94536 -3.64538,-20.89247 -3.9033,-16.62489 -7.26813,-33.54504 -11.70765,-49.93637 -4.39607,-1.63248 -9.96155,-0.33641 -14.79139,-0.86952 -3.79959,-0.0137 -7.59948,-0.10783 -11.39898,-0.0439 z m 10.57548,13.65892 c 2.21797,-0.24795 4.69298,0.0153 4.55091,2.89868 2.14965,9.71694 4.37899,19.90302 5.74283,29.53578 -6.13767,0.15258 -12.89566,0.53887 -18.78878,-0.46115 1.44526,-10.6556 3.75627,-21.44642 6.67467,-31.77567 0.57636,-0.15663 1.20357,-0.17683 1.82037,-0.19764 z"
       id="path3846"
       inkscape:connector-curvature="0" />
    <path
       style="fill:#6d8d24;fill-opacity:1;stroke:none;display:inline"
       d="m 82.7148,423.39176 c -1.546497,8.35821 0.689378,17.42487 -1.193337,25.76682 -2.800684,4.12389 -11.091738,2.83138 -10.943137,-2.89139 -1.636828,-7.40262 0.285495,-15.66185 -2.691355,-22.64513 -4.195044,-2.34943 -4.466843,4.56017 -4.671786,7.19013 0.108128,7.80082 -1.67503,17.15435 3.529234,23.69423 6.666737,5.50393 19.315869,4.20038 23.028846,-4.1964 1.296615,-8.66299 1.120415,-17.71973 0.90526,-26.36871 -1.448526,-1.95127 -5.833542,-1.36977 -7.963725,-0.54955 z"
       id="path3848"
       inkscape:connector-curvature="0" />
    <path
       style="fill:#6d8d24;fill-opacity:1;stroke:none;display:inline"
       d="m 98.964501,423.39176 c -0.948819,9.95736 -0.509159,20.34086 -0.228523,30.42379 -0.695598,4.25754 6.057542,5.29198 6.372932,0.94674 0.8083,-7.84468 -0.145,-16.02671 0.78711,-23.71979 3.93643,7.83568 5.24562,16.76484 9.08965,24.53859 3.08357,2.3986 7.51507,0.83254 11.0701,2.22615 4.45352,-2.03028 1.08905,-9.17025 2.13277,-13.30563 -0.39879,-7.03741 0.82049,-14.42087 -0.60937,-21.23778 -5.4761,-2.54791 -9.56986,1.28999 -7.93014,7.06057 -0.18169,5.98542 -0.15994,12.06975 -0.70249,17.98979 -3.64664,-8.16121 -5.08424,-17.50529 -9.19123,-25.35741 -3.47944,-0.0239 -7.49918,-0.83509 -10.790809,0.43498 z"
       id="path3850"
       inkscape:connector-curvature="0" />
    <path
       style="fill:#6d8d24;fill-opacity:1;stroke:none;display:inline"
       d="m 135.5263,423.39176 c -1.12302,10.60808 -0.1628,21.60891 -0.48243,32.36846 2.37721,4.37654 10.30302,1.44342 7.76938,-4.09404 -0.39284,-9.42687 0.7944,-19.19166 -0.60937,-28.40235 -1.98309,-0.72976 -4.75717,-0.84882 -6.67758,0.12793 z"
       id="path3854"
       inkscape:connector-curvature="0" />
    <path
       style="fill:#6d8d24;fill-opacity:1;stroke:none;display:inline"
       d="m 147.84048,423.39176 c -0.36598,6.27848 2.97803,12.64554 4.05171,18.95418 2.07058,4.68816 1.20555,11.16728 5.08875,14.74484 3.69313,0.698 8.96502,1.44185 11.78101,-1.56084 3.48745,-9.84735 5.9959,-20.22479 7.84556,-30.47497 -1.18908,-4.3414 -7.40249,-1.82745 -7.28698,2.07259 -2.46752,7.71281 -3.03611,16.17506 -6.29673,23.48953 -2.35885,-0.89696 -2.01292,-5.20625 -3.07222,-7.21573 -2.27415,-6.45518 -2.2351,-14.11066 -6.19517,-19.80491 -1.61662,-1.23115 -4.21267,-1.10751 -5.91593,-0.20469 z"
       id="path3856"
       inkscape:connector-curvature="0" />
    <path
       style="fill:#6d8d24;fill-opacity:1;stroke:none;display:inline"
       d="m 182.65037,423.39176 c -1.12109,10.69372 -0.15935,21.78016 -0.48242,32.62434 2.62865,3.92089 9.06222,0.58871 13.27903,1.27937 3.16882,-0.78986 9.15711,1.04207 10.00373,-3.32639 -1.40702,-4.65261 -7.91889,-2.88069 -11.5779,-3.37758 -2.08419,0.2369 -4.84567,0.0393 -3.93547,-2.89142 -1.65497,-5.18684 3.45364,-3.90676 6.85532,-4.37549 2.75965,0.38868 8.05102,-1.46654 5.45889,-4.88726 -3.2311,-3.16265 -8.67132,-0.5871 -12.08571,-2.45641 -0.28743,-2.84938 -1.42566,-7.50988 3.015,-6.27043 3.78561,-0.85493 8.96589,0.67928 11.81284,-2.40382 1.44586,-4.51605 -4.94927,-4.47836 -7.74399,-4.47783 -4.81317,0.25871 -10.01723,-0.8127 -14.59932,0.56292 z"
       id="path3858"
       inkscape:connector-curvature="0" />
    <path
       style="fill:#6d8d24;fill-opacity:1;stroke:none;display:inline"
       d="m 283.52795,340.42202 c -0.9597,11.9146 -0.13805,24.1669 -0.41174,36.21154 0.18718,11.43735 -0.37475,23.03576 0.28163,34.3722 3.17215,2.15198 8.17092,0.3816 12.04919,0.96092 4.87059,-0.33896 1.73362,-7.39682 2.6222,-10.73829 -0.18758,-20.104 0.37526,-40.3694 -0.28164,-60.37247 -3.17215,-2.15196 -8.1709,-0.3816 -12.04919,-0.96092 -0.82029,-0.16827 -1.50009,0.17236 -2.21045,0.52702 z"
       id="path3860"
       inkscape:connector-curvature="0" />
    <path
       style="fill:#6d8d24;fill-opacity:1;stroke:none;display:inline"
       d="m 290.02927,318.83567 c -4.97723,0.42441 -9.37414,6.96969 -5.13604,11.06768 4.03889,5.66243 13.63383,1.21429 12.5692,-5.53383 -0.44148,-3.58663 -4.00829,-5.91572 -7.43316,-5.53385 z"
       id="path3862"
       inkscape:connector-curvature="0" />
    <path
       style="fill:#6d8d24;fill-opacity:1;stroke:none;display:inline"
       d="m 381.17771,339.21425 c -9.027,0.27736 -18.22541,0.19261 -27.12628,1.20984 -2.02637,3.38304 -0.3432,8.49022 -0.89438,12.53693 0,15.32052 0,30.64108 0,45.9616 -5.34789,1.10037 -7.8943,-0.63803 -6.54466,-6.32439 -0.18777,-17.22723 0.37521,-34.61593 -0.28166,-51.74231 -3.28693,-2.15709 -8.40056,-0.38275 -12.39591,-0.96092 -7.98256,0.34634 -16.25719,-0.70212 -24.05487,0.52702 -0.95969,11.9146 -0.13804,24.1669 -0.41175,36.21154 0.18718,11.43735 -0.37475,23.03576 0.28165,34.3722 3.17213,2.15198 8.1709,0.3816 12.04918,0.96092 4.87059,-0.33896 1.73362,-7.39682 2.6222,-10.73829 0,-15.8622 0,-31.72441 0,-47.58662 2.27437,0.57018 7.54874,-1.46447 6.94669,2.41332 1.08532,18.28551 0.43794,36.77534 1.49297,54.96818 3.2991,2.12651 8.39329,0.36971 12.38622,0.94341 7.44792,-0.34668 15.1888,0.70549 22.45121,-0.52703 0.95693,-12.03223 0.14243,-24.40028 0.41173,-36.56287 0,-7.07834 0,-14.15667 0,-21.23501 4.27315,-0.0113 9.89901,-1.39337 7.93163,4.91896 0.18998,17.46102 -0.37734,35.08488 0.28164,52.44503 3.28693,2.1571 8.40058,0.38274 12.39591,0.96092 3.36134,-2.44751 0.76371,-8.30739 1.58199,-12.14372 -0.18915,-19.86942 0.37702,-39.90127 -0.28164,-59.66975 -1.82468,-1.98892 -6.22818,-0.5463 -8.84187,-0.93896 z"
       id="path3864"
       inkscape:connector-curvature="0" />
    <path
       style="fill:#6d8d24;fill-opacity:1;stroke:none;display:inline"
       d="m 415.41797,339.91697 c -3.31861,2.28 -2.29743,7.91223 -3.85222,11.52832 -4.27244,19.41374 -8.94846,38.74087 -13.31125,58.12778 0.69987,3.59135 5.61013,1.86737 8.12665,2.39361 4.0855,0.85481 7.8763,-0.35585 7.73657,-5.16053 1.3336,-2.44974 -0.0759,-8.205 3.72742,-7.48826 8.13386,0 16.26773,0 24.40158,0 1.62713,4.20865 1.13976,10.78629 5.74283,13.04406 3.61278,0.15029 8.16235,1.36137 11.22562,-1.01014 1.12133,-4.31562 -1.53187,-8.88304 -1.88484,-13.24675 -4.27861,-19.05231 -8.44715,-38.28121 -13.36068,-57.09258 -2.87635,-2.00728 -7.44163,-0.54685 -10.91139,-1.08547 -5.87988,-0.0641 -11.76021,-0.005 -17.64029,-0.01 z m 13.99951,13.7248 c 3.15878,-0.9329 3.79311,1.29351 3.87273,4.11282 1.91108,9.30162 4.10215,18.58704 5.72753,27.9044 -6.29059,0.75657 -13.3101,0.92917 -19.33057,0.022 1.43478,-10.76113 4.39592,-21.37891 6.60967,-32.03918 1.04021,0 2.08041,0 3.12064,0 z"
       id="path3866"
       inkscape:connector-curvature="0" />
    <path
       style="fill:#6d8d24;fill-opacity:1;stroke:none;display:inline"
       d="m 211.95057,423.13589 c -1.23662,10.69778 -0.17819,21.85313 -0.5332,32.72667 1.70749,3.87594 7.8962,1.02232 7.66782,-2.917 0.99099,-2.87615 -0.51604,-8.54256 3.96088,-7.47161 6.70893,0.34165 5.09096,11.97556 11.95875,11.94946 4.30965,-1.79044 0.33938,-7.12783 -0.0253,-10.26067 -1.4313,-4.61642 4.05415,-7.71546 3.37688,-12.46122 0.72298,-6.39012 -4.84978,-11.85403 -11.09549,-11.43769 -5.04036,-0.11629 -10.45102,-1.25058 -15.31025,-0.12794 z m 11.45097,6.6528 c 3.4487,-0.64385 8.28083,0.43955 7.54086,4.91283 0.40528,3.60558 -3.26133,5.03838 -6.29664,4.44033 -2.25555,0.0232 -6.26084,0.75833 -5.38282,-2.8283 0.25844,-3.80949 -1.91714,-8.08265 4.1386,-6.52486 z"
       id="path3868"
       inkscape:connector-curvature="0" />
    <path
       style="fill:#6d8d24;fill-opacity:1;stroke:none;display:inline"
       d="m 254.93607,422.59854 c -6.31251,-0.42805 -13.13266,5.02495 -11.37478,11.82153 2.39905,7.29355 11.41171,7.23327 16.42741,11.4889 1.97124,3.23262 -2.1352,5.97309 -5.15419,5.3734 -3.28667,0.81616 -9.13221,-1.38743 -10.43535,2.84023 1.86264,4.53387 8.30342,2.91138 12.21173,3.18511 8.27805,1.39187 14.70768,-9.99986 8.96363,-16.18367 -3.87107,-4.30664 -10.57938,-4.41208 -14.65009,-8.11129 -0.92514,-4.82681 5.9088,-3.94098 8.78034,-4.56508 2.38236,-0.11023 7.8384,-0.65484 5.99671,-4.33946 -2.90955,-2.17157 -7.36338,-1.31456 -10.76541,-1.50967 z"
       id="path3870"
       inkscape:connector-curvature="0" />
    <path
       style="fill:#6d8d24;fill-opacity:1;stroke:none;display:inline"
       d="m 274.46107,423.39176 c -1.123,10.60808 -0.16278,21.60891 -0.48241,32.36846 2.42711,4.25633 11.22505,1.88021 8.58185,-4.09404 -0.39283,-9.42687 0.79441,-19.19166 -0.60935,-28.40235 -2.23558,-0.76995 -5.31804,-0.84022 -7.49009,0.12793 z"
       id="path3872"
       inkscape:connector-curvature="0" />
    <path
       style="fill:#6d8d24;fill-opacity:1;stroke:none;display:inline"
       d="m 294.06226,422.9056 c -2.90616,-0.25787 -9.28047,0.24211 -7.43931,4.70813 2.01937,2.78561 6.72354,0.88893 8.7342,2.78906 1.28051,8.82692 -0.34737,18.08388 1.16793,26.73916 5.42502,2.64235 8.7394,-1.81204 7.16004,-7.11339 0,-6.76367 0,-13.52735 0,-20.29104 2.81863,-0.61134 9.45075,-4.2e-4 8.48031,-4.63138 -3.83337,-3.08697 -9.67717,-1.55924 -14.29466,-2.20054 -1.26967,-0.0285 -2.53886,-0.0314 -3.80851,0 z"
       id="path3874"
       inkscape:connector-curvature="0" />
    <path
       style="fill:#6d8d24;fill-opacity:1;stroke:none;display:inline"
       d="m 320.89962,423.26383 c -3.26946,10.49977 -5.47884,21.43436 -7.92173,32.18933 1.44907,4.523 6.88032,0.23052 8.3026,-2.40525 4.03142,-1.5486 8.92228,-1.29772 12.99972,-0.86997 0.29879,3.19314 4.60231,7.72272 7.18542,3.9405 0.99009,-5.42632 -2.17288,-10.94853 -2.82482,-16.3545 -1.70402,-5.36872 -1.97891,-11.46371 -4.66527,-16.3466 -4.2182,-0.28292 -8.99331,-1.21005 -13.07592,-0.15351 z m 6.67759,5.73165 c 3.0393,0.78662 2.23352,5.76215 3.37691,8.21365 0.1189,2.34592 1.75569,6.55473 -0.10159,7.67631 -2.09855,-0.59934 -6.00958,1.01647 -7.41391,-0.76762 0.73265,-5.03327 1.16581,-10.64405 3.50386,-15.12234 0.21263,0.009 0.42266,-0.0691 0.63473,0 z"
       id="path3876"
       inkscape:connector-curvature="0" />
    <path
       style="fill:#6d8d24;fill-opacity:1;stroke:none;display:inline"
       d="m 348.39714,423.39176 c -0.9339,10.12831 -0.54501,20.6809 -0.15234,30.93554 -0.14482,4.24559 5.70921,3.78227 6.34751,0.15352 1.04718,-2.91337 0.96536,-6.07709 1.0664,-9.1348 4.1804,-1.03529 7.48658,1.72613 8.60725,5.6037 1.13087,3.49587 5.49483,8.01094 8.87451,4.79736 0.93701,-4.65356 -6.38023,-9.96417 -1.53677,-13.88098 4.4393,-5.74728 3.03426,-16.88428 -5.20497,-18.14171 -5.82972,-1.04996 -12.29712,-1.49984 -18.00159,-0.33263 z m 7.79475,6.39693 c 3.12294,0.81154 8.99537,-1.92479 10.23225,2.48201 1.79155,3.69757 -1.71078,7.22342 -5.40811,6.62721 -5.67929,2.07404 -6.0232,-2.28927 -6.04286,-6.95984 0.003,-1.20618 -0.59965,-2.51812 1.21872,-2.14938 z"
       id="path3878"
       inkscape:connector-curvature="0" />
    <path
       style="fill:#6d8d24;fill-opacity:1;stroke:none;display:inline"
       d="m 383.53708,422.87999 c -3.83775,2.80649 -1.45107,8.96652 -2.31051,12.99859 0.58975,6.80247 -1.19194,14.18784 1.09177,20.67486 2.39577,2.80858 6.39336,-0.17109 5.71279,-3.45435 -0.10896,-9.41896 1.03847,-19.12115 -0.83788,-28.37676 -0.6136,-1.39229 -2.15611,-2.27681 -3.65617,-1.84234 z"
       id="path3882"
       inkscape:connector-curvature="0" />
    <path
       style="fill:#6d8d24;fill-opacity:1;stroke:none;display:inline"
       d="m 409.71429,422.87999 c -6.72436,-0.53967 -14.03842,3.68828 -14.21847,11.0795 -0.32328,6.78574 -1.31673,15.06737 3.63079,20.44458 5.65424,4.17179 14.32748,4.10829 20.0836,0.2047 5.79129,-4.77609 4.56176,-13.45661 4.41786,-20.16311 -1.02273,-7.06611 -6.45756,-12.56138 -13.91378,-11.56567 z m -1.44724,5.91077 c 5.02604,-0.86243 8.95505,4.00943 8.58188,8.87895 0.19681,4.699 -0.0284,12.01875 -5.45889,13.66383 -3.84359,0.82272 -9.08996,-0.94346 -8.35335,-5.75725 0.11106,-4.98691 -1.2194,-10.83431 1.29491,-15.27586 1.06433,-0.94108 2.54362,-1.44292 3.93545,-1.50967 z"
       id="path3884"
       inkscape:connector-curvature="0" />
  </g>
  <g
     inkscape:groupmode="layer"
     id="layer3"
     inkscape:label="Logo">
    <path
       style="fill:#000000;display:inline"
       d="m 104.06684,297.19606 c -0.67359,-0.75271 -1.22472,-33.15908 -1.22472,-72.01411 0,-62.54289 0.33031,-70.78725 2.87972,-71.88046 5.33203,-2.28636 32.7066,-1.34248 34.9876,1.20643 1.58627,1.77255 2.18465,16.81729 2.18465,54.92748 l 0,52.48624 103.771,0 103.77102,0 0,-53.69266 c 0,-47.084 0.35443,-53.84463 2.87971,-54.92749 5.90174,-2.53066 33.01009,-1.33607 35.15297,1.54913 1.47585,1.98718 1.93041,22.8023 1.58829,72.7281 l -0.47926,69.94407 -142.14315,0.52091 c -78.1787,0.28649 -142.69422,-0.0949 -143.36783,-0.84764 z m 280.9596,-71.8927 0,-67.13362 -15.47466,0 -15.4746,0 0,53.92645 0,53.92641 -107.86723,-0.52468 -107.86721,-0.52473 -0.48537,-53.40171 -0.48535,-53.40174 -15.44441,0 -15.4444,0 0,67.13362 0,67.13356 139.2716,0 139.27163,0 z M 227.54939,242.8638 c -10.70429,-5.61828 -13.97958,-9.35789 -18.97562,-21.66573 -4.75344,-11.71022 -4.75239,-22.88353 0.004,-33.86101 14.64257,-33.79985 62.457,-32.66273 75.31699,1.7912 7.97607,21.36909 -1.93647,46.34396 -22.15093,55.80969 -9.15544,4.28718 -23.76163,3.40118 -34.19364,-2.07415 z m 38.22472,-6.25959 c 11.06368,-7.24518 18.38394,-23.26579 16.53491,-36.187 -2.18496,-15.26884 -11.48185,-26.28076 -26.42157,-31.29575 -9.22887,-3.09793 -10.57392,-3.08514 -20.02597,0.19064 -16.68989,5.78429 -25.60726,18.20352 -25.60726,35.66332 0,15.32979 11.17456,31.77963 24.9141,36.67563 8.66487,3.08769 21.38771,0.98968 30.60579,-5.04692 z M 103.68414,131.24082 c -0.49911,-1.45341 -0.68792,-25.5125 -0.4196,-53.46464 l 0.48786,-50.822098 140.892,-0.521215 c 102.57391,-0.37944 141.56535,0.103184 143.36782,1.774876 3.67498,3.408142 3.62078,99.921087 -0.058,103.332797 -1.68546,1.56311 -9.76214,2.15737 -24.12221,1.77486 l -21.58831,-0.57504 -0.50387,-30.02482 -0.5039,-30.024797 -95.07467,0.526715 -95.07465,0.526715 -0.91028,29.498087 -0.91026,29.4981 -22.33718,0.57151 c -17.01416,0.43534 -22.55347,-0.0581 -23.24469,-2.07105 z m 43.2562,-32.575835 0.5051,-28.989511 98.76451,-0.526123 98.76449,-0.526107 0,29.515604 0,29.515622 20.02603,0 20.02597,0 0,-47.807247 0,-47.807259 -139.27163,0 -139.2716,0 0,47.807259 0,47.807247 19.97601,0 19.97599,0 z"
       id="path2987-4"
       inkscape:connector-curvature="0"
       sodipodi:nodetypes="cssscccsssscscccccccccccccccccccsscccsscssccsscccsscccccccsscccscccccccccccccsss" />
  </g>
  <g
     inkscape:groupmode="layer"
     id="layer1"
     inkscape:label="Canaima">
    <path
       style="fill:#000000;display:inline"
       d="m 29.178668,411.538 c -5.152618,-0.87897 -8.928819,-3.6378 -11.193494,-8.17779 -1.93417,-3.87741 -1.934186,-3.87766 -1.934186,-27.70997 0,-26.6595 0.04029,-26.89452 5.464365,-31.83786 1.63537,-1.49045 4.309455,-3.08417 5.94242,-3.54161 3.485131,-0.97626 37.449991,-1.12822 38.940648,-0.1742 0.726863,0.46519 0.941055,2.56864 0.777064,7.63102 l -0.226398,6.98879 -17.095549,0.39195 -17.095546,0.39195 -0.207138,20.56233 -0.207136,20.56233 17.302683,0.21101 17.302686,0.21101 0.226398,6.98879 c 0.163991,5.06239 -0.05018,7.16582 -0.777064,7.63102 -1.257878,0.80504 -32.376838,0.69737 -37.219753,-0.12877 z m 36.444593,-7.23999 -0.228309,-5.68326 -17.301895,-0.21099 -17.301884,-0.21104 0.206338,-22.13011 0.206346,-22.13012 17.095546,-0.4306 c 9.402544,-0.23683 17.182968,-0.50139 17.289814,-0.58793 0.106848,-0.0864 0.194266,-2.62661 0.194266,-5.64462 l 0,-5.4873 -18.886084,0 -18.88609,0 -3.699159,2.36655 c -2.640685,1.6894 -4.138865,3.36931 -5.235819,5.87097 -1.437241,3.27769 -1.521972,5.01364 -1.309661,26.8337 l 0.226995,23.32928 2.210569,3.28641 c 4.079977,6.06559 5.937647,6.51101 27.157877,6.51173 l 18.489462,6.1e-4 z m 7.671906,7.51238 c -0.928575,-0.93674 -0.569824,-3.05958 3.313097,-19.60444 2.107138,-8.97835 5.708113,-24.43765 8.002171,-34.35397 l 4.171004,-18.02969 15.115671,0 15.11568,0 2.43473,9.79874 c 8.25526,33.22393 14.31484,59.27695 14.11504,60.68733 -0.21672,1.5299 -0.72044,1.63267 -8.00199,1.63267 l -7.77071,0 -1.61585,-6.27118 -1.61585,-6.2712 -12.53059,-0.21522 -12.530585,-0.21524 -0.801201,3.00159 c -0.440661,1.65086 -1.030177,4.217 -1.310036,5.70251 -0.821472,4.36042 -1.388678,4.6607 -8.80356,4.6607 -3.722943,0 -7.002104,-0.23518 -7.287021,-0.5226 z m 60.088403,-2.41703 c -0.006,-1.90127 -4.3123,-20.89032 -10.49016,-46.26781 l -5.20448,-21.37904 -13.68538,0.21374 -13.685386,0.21375 -0.679954,3.13559 c -1.651582,7.6162 -14.158048,60.32804 -15.026365,63.33261 -0.37062,1.28242 0.154067,1.38467 6.034874,1.17584 l 6.440776,-0.22871 0.640838,-3.13559 c 0.352473,-1.72458 0.994721,-4.46632 1.42723,-6.09276 l 0.786376,-2.95717 14.098041,0.21352 14.09801,0.21352 1.31826,5.27202 c 2.04666,8.18505 1.49545,7.66232 8.07994,7.66232 5.0576,0 5.85172,-0.1863 5.84738,-1.37183 z M 93.252662,386.04791 c -0.251132,-0.66015 0.435164,-4.9814 1.525091,-9.60277 1.089931,-4.62135 2.763831,-11.84182 3.719781,-16.04549 l 1.738086,-7.64302 4.05277,0 c 3.57652,0 4.09575,0.20728 4.41838,1.76378 0.20107,0.97008 1.83397,8.25105 3.62869,16.17994 1.79471,7.92887 3.08066,14.89581 2.85767,15.482 -0.63278,1.66348 -21.30475,1.5368 -21.940468,-0.13444 z m 19.932118,-1.49339 c 0,-0.18809 -1.02525,-4.69533 -2.27833,-10.01604 -1.25306,-5.32073 -2.68769,-12.04554 -3.18805,-14.94404 -0.90571,-5.2467 -0.92101,-5.27001 -3.45912,-5.27001 -2.0139,0 -2.62868,0.37046 -2.92688,1.76377 -0.20763,0.97008 -1.32263,5.82046 -2.477806,10.77863 -1.15517,4.95816 -2.56861,11.04317 -3.14098,13.52226 l -1.040684,4.50743 9.25592,0 c 5.09077,0 9.25593,-0.1539 9.25593,-0.342 z m 30.49197,27.12728 c -0.76917,-0.49259 -0.93594,-8.27036 -0.77707,-36.24334 l 0.20229,-35.61617 19.03823,0 19.03822,0 0.20372,29.20026 0.20373,29.20024 3.09883,0 3.09882,0 0.0119,-28.41634 c 0.006,-15.62899 0.29803,-28.87131 0.64774,-29.42737 0.46316,-0.73646 2.62302,-0.94934 7.95308,-0.7839 l 7.31724,0.22711 0.20203,36.26931 0.20204,36.26929 -18.85173,-0.20992 -18.85171,-0.20994 -0.20386,-28.80828 -0.20384,-28.80832 -3.09869,0 -3.09872,0 0,28.19282 c 0,27.07109 -0.0597,28.22507 -1.50304,29.00427 -1.76086,0.95065 -13.1993,1.07598 -14.62918,0.16028 z m 13.9856,-30.11686 0.20394,-28.41636 5.05098,0 5.05096,0 0.20396,28.41636 0.20395,28.41635 17.08585,0 17.08586,0 0,-34.09962 0,-34.09963 -6.207,0 -6.20697,0 -0.20385,28.80831 -0.20384,28.8083 -4.85669,0.23338 -4.85669,0.23338 0,-29.04169 0,-29.04168 -17.48409,0 -17.48407,0 0,34.09963 0,34.09962 6.20686,0 6.20689,0 z m 54.63771,30.04755 c -0.24278,-0.39628 0.26775,-3.83564 1.13449,-7.64304 4.1267,-18.12752 8.24824,-35.67651 11.56748,-49.25307 l 3.64139,-14.89409 15.08152,0 15.08151,0 4.79418,19.59749 c 8.25133,33.72953 11.10691,46.14449 11.35921,49.38566 l 0.24408,3.13559 -7.77072,0 -7.77069,0 -1.61663,-6.27118 -1.61664,-6.2712 -12.73062,0 -12.73059,0 -1.24206,5.5192 c -0.68313,3.03558 -1.5034,5.94579 -1.82282,6.46718 -0.69551,1.13523 -14.9199,1.34259 -15.60309,0.22746 z m 60.96118,-1.59632 c 0,-0.41193 -1.23057,-5.96782 -2.73464,-12.34641 -1.50404,-6.37856 -3.08321,-13.18478 -3.50925,-15.12494 -0.82994,-3.77939 -6.16823,-26.7381 -8.24772,-35.47146 l -1.25992,-5.29132 -13.75429,0 -13.75429,0 -2.84193,11.95446 c -1.56306,6.57497 -3.35821,14.42376 -3.98921,17.44177 -0.631,3.01802 -2.90651,12.86714 -5.05668,21.88693 -2.15017,9.01979 -3.90942,16.51584 -3.90942,16.65786 0,0.14202 2.78399,0.25823 6.18662,0.25823 l 6.18661,0 0.81634,-3.33157 c 0.449,-1.83237 1.17587,-4.65441 1.61528,-6.2712 l 0.79895,-2.93962 13.92613,0 13.92611,0 0.76398,2.93962 c 0.42018,1.61679 1.00654,3.99789 1.30304,5.29133 1.11741,4.87462 1.45243,5.09534 7.7336,5.09534 3.19038,0 5.80069,-0.33707 5.80069,-0.74902 z m -40.41716,-24.13979 c -0.007,-1.17609 5.83445,-29.36123 6.6624,-32.13988 0.33368,-1.11992 7.76931,-1.3886 8.43334,-0.30472 0.54388,0.88774 5.8952,26.19549 6.44602,30.48486 l 0.42782,3.33158 -10.98003,0 c -9.93552,0 -10.98094,-0.1305 -10.98955,-1.37184 z m 19.89897,-2.35169 c -0.2305,-0.75449 -1.65248,-6.83952 -3.15996,-13.52226 -1.50747,-6.68275 -2.92265,-12.94415 -3.14489,-13.91423 -0.30319,-1.3236 -0.95937,-1.76377 -2.62928,-1.76377 -2.4449,0 -2.16521,-0.81855 -7.0982,20.77335 -0.88652,3.88028 -1.79092,7.67242 -2.00978,8.42691 -0.36354,1.25319 0.41754,1.37183 9.03162,1.37183 8.62217,0 9.39369,-0.11747 9.01049,-1.37183 z m 30.19883,27.82843 c -0.20486,-0.53893 -0.28131,-16.85384 -0.16988,-36.25534 l 0.20263,-35.27549 7.77069,0 7.77071,0 0.20233,35.18534 c 0.14566,25.32614 -0.0442,35.48517 -0.67794,36.25535 -1.18929,1.44557 -14.55294,1.52535 -15.09854,0.0902 z m 13.63148,-35.47145 0,-34.09963 -6.21658,0 -6.21655,0 0,34.09963 0,34.09962 6.21655,0 6.21658,0 z m 12.78891,35.47145 c -0.20486,-0.53893 -0.28132,-16.85384 -0.16987,-36.25534 l 0.20261,-35.27549 18.26115,0 18.26115,0 0.20373,29.20026 0.20372,29.20024 2.70083,0 2.70083,0 0.20373,-29.20024 0.20372,-29.20026 17.69358,-0.66588 c 9.73148,-0.36625 18.21475,-0.46415 18.85174,-0.21758 1.00713,0.38987 1.13179,5.17866 0.9561,36.72527 l -0.20205,36.27693 -6.99363,0 -6.99364,0 -0.20383,-28.80828 -0.20384,-28.80832 -3.48724,0 -3.48726,0 0,29.00428 0,29.00428 -18.178,0 c -15.85913,0 -18.23819,-0.15818 -18.64968,-1.23997 -0.25944,-0.68196 -0.47169,-13.7339 -0.47169,-29.00425 l 0,-27.76434 -2.71974,0 -2.71975,0 0,28.19282 c 0,27.07109 -0.0598,28.22507 -1.50305,29.00427 -2.20848,1.19233 -13.99452,1.05507 -14.45962,-0.1684 z m 13.63146,-30.02156 0,-28.64974 4.85669,0.23338 4.85669,0.23338 0.20396,28.41636 0.20398,28.41635 16.6973,0 16.69732,0 0,-28.61232 0,-28.61234 5.05096,0 5.05095,0 0,28.61234 0,28.61232 5.82803,0 5.82802,0 0,-34.49157 0,-34.49158 -4.85669,0.002 c -2.67117,0.001 -10.35992,0.23284 -17.08609,0.51426 l -12.2294,0.51171 -0.20372,28.68596 -0.20372,28.68597 -4.46816,0.2351 -4.46814,0.23509 0,-29.04339 0,-29.04341 -17.09555,0 -17.09555,0 0,34.09964 0,34.09962 6.21656,0 6.21656,0 0,-28.64972 z m 74.0672,29.73231 c -0.47508,-1.24892 2.03969,-12.8992 10.47078,-48.50849 2.34785,-9.91633 4.49574,-19.08795 4.77308,-20.38138 l 0.50427,-2.35171 15.12103,0 15.12101,0 3.58333,14.50214 c 8.68485,35.14824 13.24059,54.85744 12.98712,56.18519 -0.24282,1.27201 -1.13753,1.43141 -8.03333,1.43141 l -7.76005,0 -1.61587,-6.27118 -1.61585,-6.2712 -12.53058,-0.21522 -12.5306,-0.21524 -0.80121,3.00159 c -0.44064,1.65086 -1.03016,4.217 -1.31003,5.70251 -0.82389,4.37326 -1.37633,4.6607 -8.95745,4.6607 -5.66296,0 -7.01075,-0.23097 -7.40565,-1.26912 z m 60.36597,-1.30555 c 0,-1.76204 -5.27211,-25.18694 -10.56378,-46.93688 l -5.11883,-21.0394 -13.78431,0 -13.78435,0 -1.34968,6.46717 c -2.01519,9.65618 -5.55612,24.96018 -9.83948,42.52655 -2.10259,8.62289 -4.0118,16.48611 -4.2427,17.47383 -0.41473,1.77418 -0.34246,1.7931 5.98676,1.56781 l 6.40656,-0.22807 0.68301,-3.13559 c 0.37564,-1.72458 1.01536,-4.46632 1.42156,-6.09276 l 0.73856,-2.95717 14.09803,0.21352 14.09805,0.21352 1.31826,5.27202 c 2.04664,8.18505 1.49543,7.66232 8.07991,7.66232 4.24757,0 5.85243,-0.2761 5.85243,-1.00687 z m -40.41228,-23.88194 c -0.002,-0.75448 1.63354,-8.5151 3.63576,-17.24578 l 3.64039,-15.87397 4.00443,0 4.00439,0 1.75782,7.64302 c 3.64981,15.86956 5.50451,25.41803 5.07373,26.12115 -0.24512,0.40009 -5.32056,0.72742 -11.2788,0.72742 -9.79744,0 -10.83354,-0.13115 -10.83772,-1.37184 z m 20.20845,-1.18981 c 0,-0.11548 -1.52253,-6.90602 -3.38341,-15.09008 l -3.38339,-14.88011 -2.31218,-0.23567 c -2.20494,-0.22474 -2.35596,-0.0431 -3.25678,3.9195 -0.51957,2.28534 -2.10643,9.18193 -3.52638,15.32573 l -2.58172,11.17058 9.22193,0 c 5.07205,0 9.22193,-0.0945 9.22193,-0.20995 z M 284.97691,331.91361 c -1.99066,-1.68975 -2.39082,-2.59653 -2.39082,-5.41761 0,-2.82109 0.40016,-3.72787 2.39082,-5.41762 6.26849,-5.32093 16.11602,0.93916 13.08591,8.31875 -1.92788,4.69523 -8.9323,6.04221 -13.08591,2.51648 z m 8.51549,-0.72847 c 2.75262,-1.43595 3.58975,-4.18868 2.17766,-7.16079 -1.47961,-3.11425 -4.58745,-4.04715 -8.00528,-2.40297 -5.63253,2.70957 -3.81225,10.39182 2.53634,10.70417 0.55545,0.0274 2.03653,-0.48586 3.29128,-1.14041 z"
       id="path2987-9"
       inkscape:connector-curvature="0"
       sodipodi:nodetypes="ssssssscccccccsssccccccssscccssscsscccsscccssscccccsssccscccssscsscccsscssscsssssssssssscssssccccccccsscccccccccscscccccccccccccccccccccccccssscccsscccccccssssssscccssssscsscccsssssssscsssssssssscscccscccccccccccsscccccccccssscccccccccssscccscscccccccccccccccccccscccccccccccccccssscccssscccccsssssscccsssscsscccssscscccssscsscssscsssssssssscs" />
  </g>
  <g
     inkscape:groupmode="layer"
     id="layer4"
     inkscape:label="Universitario"
     style="display:inline">
    <path
       style="fill:#000000;display:inline"
       d="m 70.797991,457.75501 c -1.52285,-0.47518 -3.91096,-1.93005 -5.30691,-3.23307 l -2.53809,-2.36911 0,-14.7297 0,-14.72971 4.15324,0 4.15323,0 0,12.45971 c 0,11.22911 0.18231,12.642 1.84588,14.30558 2.21747,2.21746 4.41739,2.34285 7.17816,0.40914 1.95292,-1.36788 2.05125,-2.05356 2.05125,-14.30558 l 0,-12.86885 4.6147,0 4.6147,0 -0.002,13.15191 c -0.002,14.82582 -1.07806,18.58281 -5.99768,20.9332 -3.41291,1.63054 -11.05202,2.13568 -14.76705,0.97648 z m 11.93099,-2.41706 c 6.10751,-2.08104 6.98929,-4.50739 6.98929,-19.23224 l 0,-11.56641 -2.76882,0 -2.76882,0 0,12.86885 c 0,12.25202 -0.0983,12.9377 -2.05125,14.30558 -2.42935,1.70159 -7.95892,1.8415 -10.02696,0.25371 -2.97582,-2.28476 -3.61178,-5.15348 -3.61178,-16.29217 0,-10.52066 -0.102,-11.13597 -1.84588,-11.13597 -1.75763,0 -1.84588,0.61531 -1.84588,12.86972 0,12.04459 0.13313,13.01823 2.07661,15.18652 1.89316,2.11216 6.30753,3.95228 9.98793,4.16345 0.79791,0.0458 3.43741,-0.59369 5.86556,-1.42104 z m 168.042389,2.89141 c -0.50761,-0.17216 -2.50497,-0.57813 -4.43856,-0.90214 -3.29744,-0.55256 -3.49791,-0.77203 -3.23029,-3.53661 l 0.28533,-2.94749 7.01247,0.30512 c 5.57373,0.24253 7.32492,-0.007 8.53537,-1.21776 2.3611,-2.36111 0.52606,-4.48289 -5.52734,-6.39106 -7.15382,-2.25504 -9.36479,-3.84379 -10.35873,-7.44355 -2.64736,-9.58797 4.24949,-15.19009 17.01742,-13.82276 7.5038,0.80358 9.14239,1.90979 7.85288,5.30147 -0.94726,2.49149 -1.02632,2.51255 -7.2564,1.93352 -5.30137,-0.49271 -6.55708,-0.32701 -7.93061,1.04651 -2.13957,2.13957 -0.85584,3.38152 5.68137,5.4964 2.68074,0.86727 6.10716,2.61442 7.61426,3.88255 2.31796,1.95044 2.73964,2.96855 2.73672,6.60763 -0.005,5.86244 -2.44171,9.63537 -7.13119,11.04037 -3.46382,1.03778 -8.77837,1.35472 -10.8627,0.6478 z m 12.1908,-3.7374 c 3.01223,-1.97131 4.5223,-7.76289 2.90464,-11.14019 -1.00235,-2.09272 -2.66005,-3.15376 -7.76218,-4.96835 -8.11863,-2.88743 -8.71767,-3.29887 -8.71767,-5.98766 0,-4.00065 2.33881,-5.22542 9.53282,-4.99209 4.19481,0.13605 6.64013,-0.16 6.86379,-0.831 0.62145,-1.86435 -9.07314,-3.25981 -13.80145,-1.9866 -4.90924,1.32193 -7.20986,3.82368 -7.20986,7.84018 0,4.17971 3.01116,7.29823 8.42441,8.7248 6.91863,1.82328 8.62231,3.00605 8.93496,6.20302 0.42909,4.38756 -2.68511,6.05419 -10.55977,5.65132 -4.21385,-0.21559 -6.30105,0.0343 -6.55113,0.78434 -0.22198,0.6658 1.024,1.33387 3.15329,1.69073 1.93616,0.3245 3.93562,0.74939 4.44323,0.9442 1.69245,0.64953 8.27967,-0.58113 10.34492,-1.9327 z m 139.17144,2.86213 c -6.69772,-2.47726 -9.27117,-8.32096 -8.55756,-19.43214 0.76041,-11.83987 4.61021,-15.56394 16.13848,-15.61134 5.27031,-0.0217 7.19392,0.36441 9.2294,1.85242 4.33688,3.17042 6.22124,8.16265 6.23853,16.52774 0.0167,8.09836 -1.5424,12.06762 -6.06388,15.43748 -3.21791,2.39833 -12.08477,3.03826 -16.98497,1.22584 z m 14.98493,-2.87871 c 4.12184,-2.69752 5.32189,-5.81628 5.28847,-13.74402 -0.0501,-11.89652 -3.58122,-16.45575 -12.74481,-16.45575 -6.44482,0 -10.80978,2.39818 -12.32193,6.76986 -2.25566,6.52119 -1.05892,19.54597 2.03157,22.11085 4.36802,3.62514 13.21789,4.28291 17.7467,1.31906 z m -13.70601,-3.07063 c -1.84399,-1.49317 -2.20714,-2.76117 -2.51034,-8.76521 -0.58371,-11.55931 1.43266,-15.33141 8.19543,-15.33141 6.89871,0 10.00053,5.69949 8.90079,16.35491 -0.69594,6.74301 -3.16627,9.48743 -8.53991,9.48743 -2.44055,0 -4.69343,-0.6505 -6.04597,-1.74572 z m 10.19132,-1.87952 c 2.36073,-2.36073 3.36569,-9.42394 1.99281,-14.00622 -2.05641,-6.86367 -8.71033,-8.29445 -11.69871,-2.51555 -2.28162,4.41217 -1.45521,14.27542 1.38907,16.57857 2.73814,2.21722 6.06553,2.19449 8.31683,-0.0568 z m -315.579119,-9.29593 0,-17.53588 6.480369,0 c 7.51814,0 6.51396,-1.25758 11.42297,14.30559 l 3.20231,10.15235 0.061,-12.22897 0.061,-12.22897 4.6147,0 4.6147,0 0,17.5747 0,17.5747 -7.06757,-0.26957 -7.06757,-0.26955 -1.74854,-5.07617 c -0.96169,-2.7919 -2.74306,-8.39876 -3.95858,-12.4597 l -2.21006,-7.38352 -0.0491,12.69043 -0.0491,12.69043 -4.15323,0 -4.153229,0 0,-17.53587 z m 6.382099,2.07662 c -0.18699,-12.75067 -0.0904,-13.61337 1.52512,-13.61337 1.41019,0 2.498,2.44087 5.96412,13.38263 l 4.23934,13.38264 5.25024,0.27679 5.25023,0.2768 0,-15.73605 0,-15.73606 -2.76882,0 -2.76882,0 0,13.91179 c 0,12.30672 -0.17174,13.87736 -1.48856,13.61337 -1.03533,-0.20754 -2.7917,-4.44223 -5.76838,-13.90782 l -4.27981,-13.60945 -4.84544,-0.004 -4.845439,-0.004 0,15.69 0,15.68999 2.367929,0 2.36793,0 -0.19964,-13.61337 z m 30.02244,14.27315 c -0.25033,-0.65236 -0.34113,-8.43967 -0.20178,-17.30513 l 0.25339,-16.11905 4.38397,-0.2813 4.38396,-0.2813 0,17.58644 0,17.58644 -4.18219,0 c -2.55534,0 -4.35925,-0.46139 -4.63735,-1.1861 z m 6.97366,-16.34977 0,-15.69 -2.30735,0 -2.30735,0 0,15.69 0,15.68999 2.30735,0 2.30735,0 z m 13.02526,14.11144 c -0.50035,-1.9237 -2.38974,-9.13002 -4.19866,-16.01407 -1.80893,-6.88405 -3.28895,-13.21773 -3.28895,-14.07485 0,-1.24746 0.8894,-1.5584 4.45753,-1.5584 l 4.45753,0 3.09031,13.61338 c 1.69966,7.48736 3.22401,13.78643 3.38746,13.99794 0.72361,0.93644 1.36434,-1.26539 3.62532,-12.45807 1.32467,-6.55763 2.79364,-12.64976 3.26439,-13.5381 0.61962,-1.16927 1.99349,-1.61515 4.97666,-1.61515 2.26642,0 4.12575,0.3115 4.13184,0.69221 0.006,0.38071 -1.09243,5.26077 -2.44114,10.84456 -1.34872,5.58379 -3.14355,13.05961 -3.98851,16.61293 l -1.53629,6.46058 -7.51389,0.26733 -7.5139,0.26732 z m 14.31912,-0.95954 c 0.33785,-1.39594 2.00705,-8.10874 3.70934,-14.91731 1.70229,-6.80858 3.09507,-12.72693 3.09507,-13.1519 0,-0.42498 -0.95521,-0.77269 -2.12269,-0.77269 -1.86376,0 -2.26539,0.70366 -3.29254,5.76839 -0.64341,3.17261 -2.02895,9.4246 -3.07898,13.8933 -1.82356,7.76079 -2.01491,8.11238 -4.26939,7.845 -2.57125,-0.30495 -2.22486,0.657 -6.66453,-18.50801 -2.01131,-8.68238 -2.17335,-8.99868 -4.60979,-8.99868 l -2.5252,0 2.70531,10.84456 c 1.48793,5.96451 3.323,13.025 4.07795,15.68999 l 1.37263,4.84544 5.49427,0 c 5.22954,0 5.52386,-0.12229 6.10855,-2.53809 z m 13.26499,-13.12511 0,-17.56267 12.51542,0 12.51541,0 -0.28645,3.46104 -0.28645,3.46103 -7.61426,0.26805 -7.61426,0.26806 0,3.1508 0,3.1508 6.22985,0.27291 6.22985,0.2729 0,3.23029 0,3.23029 -6.22985,0.27291 -6.22985,0.2729 0,3.1508 0,3.1508 7.61426,0.26806 7.61426,0.26806 0,3.23029 0,3.23029 -12.22896,0.25753 -12.22897,0.25752 z m 22.15058,13.85464 c 0,-1.6283 -0.75887,-1.83526 -7.61426,-2.07661 l -7.61426,-0.26806 0,-4.6147 0,-4.61471 6.22985,-0.2729 c 5.41981,-0.23742 6.22985,-0.50195 6.22985,-2.03445 0,-1.53249 -0.81004,-1.79703 -6.22985,-2.03445 l -6.22985,-0.2729 0,-4.6147 0,-4.6147 7.61426,-0.26806 c 6.85539,-0.24135 7.61426,-0.44831 7.61426,-2.07662 0,-1.68652 -0.68514,-1.80857 -10.15235,-1.80857 l -10.15234,0 0,15.69 0,15.68999 10.15234,0 c 9.46721,0 10.15235,-0.12205 10.15235,-1.80856 z m 7.38352,-13.88143 0,-17.53588 9.55316,0 c 11.14954,0 14.90464,1.04492 16.77868,4.66895 1.98655,3.84154 1.71217,10.59814 -0.59724,14.70718 l -1.95361,3.47599 1.95361,5.2215 c 1.07449,2.87182 1.95362,5.62123 1.95362,6.10981 0,0.48858 -2.02598,0.88832 -4.50217,0.88832 l -4.50218,0 -2.07094,-5.53764 c -1.9696,-5.26667 -2.2235,-5.53764 -5.18871,-5.53764 l -3.11775,0 0,5.53764 0,5.53764 -4.15324,0 -4.15323,0 z m 6.64728,9.92161 c 0.26631,-5.59077 0.35635,-5.7777 2.92438,-6.07117 5.26245,-0.6014 6.6812,0.40326 8.88275,6.29014 1.73764,4.64641 2.43248,5.54941 4.27017,5.54941 2.64509,0 2.62848,0.24177 0.34893,-5.07617 -2.3166,-5.40441 -2.31121,-6.76923 0.0366,-9.26831 2.47429,-2.63376 3.28344,-7.93905 1.76862,-11.59614 -1.66314,-4.0152 -5.63193,-5.43937 -15.15816,-5.43937 l -7.87464,0 0,15.69 0,15.68999 2.26331,0 c 2.13173,0 2.27929,-0.33537 2.53809,-5.76838 z m 0.4286,-9.61396 c -0.33841,-0.33841 -0.6153,-3.24567 -0.6153,-6.46059 l 0,-5.84528 5.85607,0 c 6.86377,0 8.91098,1.52109 8.91098,6.62094 0,4.62854 -2.2437,6.30022 -8.45604,6.30022 -2.79423,0 -5.3573,-0.27688 -5.69571,-0.61529 z m 10.92471,-3.41336 c 1.08716,-1.65922 1.20842,-2.76609 0.50559,-4.6147 -0.82958,-2.18195 -1.40133,-2.43193 -5.56217,-2.43193 l -4.63754,0 0,4.6147 0,4.6147 4.13195,0 c 3.32609,0 4.41089,-0.42571 5.56217,-2.18277 z m 43.83642,3.10571 0,-17.53588 4.61471,0 4.6147,0 0,17.53588 0,17.53587 -4.6147,0 -4.61471,0 z m 7.38353,0 0,-15.69 -2.76882,0 -2.76882,0 0,15.69 0,15.68999 2.76882,0 2.76882,0 z m 14.4594,16.92057 c -0.33841,-0.3384 -0.61529,-6.56825 -0.61529,-13.8441 l 0,-13.22881 -4.61471,0 -4.6147,0 0,-3.69177 0,-3.69177 13.78964,0 c 7.5843,0 13.97236,0.3115 14.19568,0.69221 0.22332,0.38071 0.2007,2.04201 -0.0503,3.69177 -0.4431,2.91262 -0.58703,2.99956 -4.96628,2.99956 l -4.50995,0 0,13.8441 0,13.84411 -3.9994,0 c -2.19968,0 -4.2763,-0.27688 -4.61471,-0.6153 z m 6.76823,-15.07469 0,-13.8441 4.6147,0 c 3.99941,0 4.61471,-0.24613 4.61471,-1.84589 0,-1.75123 -0.6153,-1.84589 -11.99823,-1.84589 -11.27563,0 -11.99823,0.10826 -11.99823,1.79766 0,1.51788 0.75412,1.84106 4.84544,2.07662 l 4.84544,0.27897 0.2554,13.61337 0.25542,13.61337 2.28267,0 2.28268,0 z m 10.14875,14.58688 c -0.002,-0.66233 1.75606,-8.57623 3.90676,-17.58643 l 3.91036,-16.38221 7.61241,0 c 7.5481,0 7.61732,0.0214 8.19424,2.5381 0.32,1.39595 2.19687,9.06074 4.17081,17.03287 1.97395,7.97212 3.58899,14.72113 3.58899,14.99778 0,0.27665 -2.04362,0.503 -4.54136,0.503 -4.31059,0 -4.57275,-0.14284 -5.15871,-2.81072 -0.61468,-2.79863 -0.64165,-2.80954 -6.26503,-2.53809 -5.16652,0.24941 -5.69341,0.46922 -6.18445,2.57999 -0.46589,2.00261 -1.11089,2.34451 -4.8836,2.58865 -3.10193,0.20074 -4.34786,-0.0636 -4.35042,-0.92294 z m 7.38975,-3.51159 c 0.51249,-2.20166 0.8848,-2.31965 8.12778,-2.57566 l 7.59069,-0.26832 0.56129,2.80641 c 0.43624,2.18125 1.04955,2.80639 2.75326,2.80639 1.20559,0 2.19198,-0.22879 2.19198,-0.50842 0,-0.27963 -1.40767,-6.19799 -3.12816,-13.1519 -1.72048,-6.95392 -3.38969,-13.78562 -3.70934,-15.18157 -0.55827,-2.438 -0.80998,-2.5381 -6.38253,-2.5381 l -5.80135,0 -2.58475,10.84456 c -1.42162,5.96451 -3.11478,13.04784 -3.76259,15.74075 l -1.17782,4.89619 2.39222,-0.28149 c 1.67668,-0.19729 2.55287,-0.97165 2.92932,-2.58884 z m 2.38534,-7.25308 c -0.68908,-1.11496 2.20555,-16.02763 3.393,-17.48012 0.53875,-0.65902 1.84655,-1.07434 2.9062,-0.92294 1.53013,0.21862 2.24609,1.50993 3.47883,6.27439 0.85369,3.29951 1.58051,7.55657 1.61514,9.46014 l 0.063,3.46103 -5.48317,0 c -3.01575,0 -5.70358,-0.35663 -5.97297,-0.7925 z m 7.97677,-8.20617 c -0.7492,-3.42642 -1.68395,-6.5819 -2.07722,-7.01217 -0.551,-0.60283 -3.67282,10.21913 -3.67282,12.73201 0,0.2805 1.60025,0.51 3.55612,0.51 l 3.55611,0 z m 17.32347,2.53808 0,-17.53588 9.25905,0 c 14.15446,0 18.42917,2.62723 18.42917,11.32649 0,4.50295 -1.85097,9.44138 -3.77967,10.08428 -0.70244,0.23414 -0.25089,2.34659 1.36499,6.38564 1.32807,3.31967 2.41468,6.33637 2.41468,6.70378 0,0.36742 -2.15688,0.54249 -4.79309,0.38906 l -4.79308,-0.27897 -2.02951,-5.07617 c -1.7888,-4.47413 -2.36969,-5.11048 -4.89779,-5.36539 l -2.86828,-0.28921 0,5.59612 0,5.59612 -4.15323,0 -4.15324,0 z m 6.64728,9.92161 0.27478,-5.76838 3.77157,-0.27643 c 4.35797,-0.3194 5.05654,0.30233 7.57805,6.74449 1.45223,3.71028 2.27486,4.66408 4.22551,4.89927 1.33222,0.16062 2.42221,0.10847 2.42221,-0.1159 0,-0.22435 -1.05792,-2.80007 -2.35093,-5.72381 -2.32521,-5.25767 -2.33152,-5.33723 -0.57681,-7.26763 4.07681,-4.48498 4.87184,-8.83665 2.46479,-13.49137 -1.74386,-3.37224 -5.86289,-4.59979 -15.45778,-4.6067 l -7.15278,-0.006 0,15.68999 0,15.68999 2.2633,0 c 2.13173,0 2.27929,-0.33537 2.53809,-5.76838 z m 0.42861,-9.61396 c -0.33842,-0.33841 -0.6153,-3.24567 -0.6153,-6.46059 l 0,-5.84528 5.94678,0 c 5.09897,0 6.15161,0.29243 7.38352,2.05124 3.81045,5.44017 0.0802,10.86992 -7.46758,10.86992 -2.54768,0 -4.90902,-0.27688 -5.24742,-0.61529 z m 10.2754,-2.33812 c 0.60914,-0.60914 1.10752,-2.18737 1.10752,-3.50717 0,-3.40191 -1.62513,-4.6147 -6.1837,-4.6147 l -3.96864,0 0,4.6147 0,4.6147 3.96864,0 c 2.18276,0 4.46704,-0.49839 5.07618,-1.10753 z m 15.87457,2.03047 0,-17.53588 4.15324,0 4.15323,0 0,17.53588 0,17.53587 -4.15323,0 -4.15324,0 z m 6.25217,0.23074 c -0.24949,-15.24168 -0.28228,-15.46341 -2.32967,-15.75419 l -2.07662,-0.29493 0,15.75419 0,15.75418 2.32967,0 2.32967,0 z"
       id="path2987-92"
       inkscape:connector-curvature="0"
       sodipodi:nodetypes="cscccccssssccccsccsscccsssssssssssscscsssssssscssssssssssssscsssssssssssssssssssssscsssccccsscccccccccssccccccccsscccccccscscccccccccsscccccsscccccccccsssscssssscsscccsssssssssscsscsscccccccccccccccccccccccccsscccssscccssscccssccssscssscssccccccsssssssscccsscscssscssscccsscccccccccccccccccccscccccsscscccsccccssssscccccccscssssssssscsscsssssscsscsscsssscsccsssscsccsssssscssccccccccsssssssccccscccscssscssscccsscccccccccsscccccs" />
  </g>
</svg>
